<?xml version="1.0" encoding="utf-8"?>
<!-- Generator: Adobe Illustrator 16.0.0, SVG Export Plug-In . SVG Version: 6.00 Build 0)  -->
<!DOCTYPE svg PUBLIC "-//W3C//DTD SVG 1.1//EN" "http://www.w3.org/Graphics/SVG/1.1/DTD/svg11.dtd">
<svg version="1.1" id="Layer_1" xmlns="http://www.w3.org/2000/svg" xmlns:xlink="http://www.w3.org/1999/xlink" x="0px" y="0px"
	 width="1400px" height="640px" viewBox="0 0 1400 640" enable-background="new 0 0 1400 640" xml:space="preserve">
<g id="the_x5F_lines">
	<g>
		<polygon fill="#FFFFFF" points="600.035,393.991 596.86,393.991 596.86,307.167 754.939,307.167 754.939,209.916 758.115,209.916 
			758.115,310.343 600.035,310.343 		"/>
	</g>
	<polygon fill="#FFFFFF" points="515.323,411.079 515.323,342.392 512.147,342.392 512.147,414.255 512.512,414.255 
		515.323,414.255 564.112,414.255 564.112,411.079 	"/>
	<polygon fill="#FFFFFF" points="1193.694,150.802 1193.694,211.815 909.68,211.815 909.68,105.517 805.187,105.517 
		805.187,184.626 758.115,184.626 758.115,47.478 627.291,47.478 627.291,84.302 508.1,84.302 508.1,101.132 330.267,101.132 
		330.267,188.553 299.771,188.553 145.657,188.553 145.657,122.344 142.481,122.344 142.481,517.642 142.382,517.642 
		142.382,520.816 571.875,520.816 571.875,517.642 145.657,517.642 145.657,191.729 299.771,191.729 333.442,191.729 
		333.442,104.308 511.275,104.308 511.275,87.478 630.466,87.478 630.466,50.653 754.939,50.653 754.939,187.802 808.362,187.802 
		808.362,108.692 906.505,108.692 906.505,297.043 866.761,297.043 866.761,393.991 866.766,393.991 866.766,421.204 
		818.689,421.204 818.689,424.38 866.766,424.38 869.94,424.38 869.941,424.38 869.941,389.993 869.937,389.993 869.937,300.218 
		909.68,300.218 909.68,214.99 1193.694,214.99 1193.694,517.642 845.932,517.642 845.932,520.816 1193.694,520.816 
		1193.694,520.901 1196.869,520.901 1196.869,150.802 	"/>
</g>
<g id="computer">
	<g>
		<rect x="450" y="598.5" opacity="0.3" fill="#FFFFFF" width="500" height="41.25"/>
		<rect x="450" y="582.25" fill="#B7DFF6" width="500" height="16.25"/>
	</g>
	<g>
		<rect x="617.761" y="564.542" fill="#FFFFFF" width="166.979" height="17.708"/>
		<path fill="#B7DFF6" d="M844.375,558.292c0,3.438-2.813,6.25-6.25,6.25H568.75c-3.438,0-6.25-2.813-6.25-6.25v-158.75
			c0-3.438,2.813-6.25,6.25-6.25h269.375c3.438,0,6.25,2.813,6.25,6.25V558.292z"/>
		<path fill="#FFFFFF" d="M578.125,543.709c-3.438,0-6.25-2.813-6.25-6.25V408.917c0-3.438,2.813-6.25,6.25-6.25H828.75
			c3.438,0,6.25,2.813,6.25,6.25v128.542c0,3.438-2.813,6.25-6.25,6.25H578.125z"/>
		<rect x="597.813" y="412.667" fill="#5692C7" width="206.875" height="11.25"/>
		<rect x="597.813" y="423.917" fill="#B4B6B7" width="206.875" height="38.75"/>
		<rect x="597.813" y="423.917" fill="#FFFFFF" width="206.875" height="4.896"/>
		<rect x="597.813" y="482.042" fill="#DFE0E0" width="206.875" height="11.25"/>
		<rect x="619.063" y="448.188" fill="#DFE0E0" width="28.959" height="28.959"/>
		<rect x="597.813" y="497.876" fill="#DFE0E0" width="63.414" height="35.729"/>
		<rect x="700" y="497.876" fill="#DFE0E0" width="104.688" height="35.729"/>
	</g>
</g>
<g id="man">
	<rect x="681.057" y="498.126" fill="#DFE0E0" width="16.823" height="16.822"/>
	<rect x="681.057" y="517.031" fill="#DFE0E0" width="16.823" height="16.823"/>
	<polygon fill="#B4B6B7" points="757.537,572.294 757.537,640 642.063,640 642.063,572.294 656.406,564.794 686.418,549.1 
		686.425,549.1 696.262,543.956 701.044,541.456 705.625,543.956 714.35,548.719 743.8,564.794 	"/>
	<rect x="686.42" y="541.458" fill="#FFFFFF" width="27.934" height="7.645"/>
	<path fill="#4A3F34" d="M679.586,482.292c0,0-0.419-4.063,7.811-4.896c8.229-0.834,30.729-2.083,31.354-9.688
		c0,0,3.126,5.833-1.354,10.208c0,0,3.33-0.65,5.518-3.672c0,0,0,4.297,0,8.047S679.586,482.292,679.586,482.292z"/>
	<path fill="#EFC693" d="M686.293,512.552c0,4.517,0.929,8.178-2.253,8.178s-9.271-3.661-9.271-8.178
		c0-4.516,0.052-8.177,3.234-8.177S686.293,508.036,686.293,512.552z"/>
	<path fill="#EFC693" d="M715.931,512.604c0,4.517-0.929,8.178,2.254,8.178c3.182,0,9.271-3.661,9.271-8.178
		c0-4.516-0.052-8.177-3.234-8.177C721.039,504.427,715.931,508.088,715.931,512.604z"/>
	<polygon fill="#4A3F34" points="722.914,482.292 679.586,482.292 679.586,525.156 686.42,541.458 714.354,541.458 722.914,525.156 
			"/>
	<polygon fill="#B4B6B7" points="642.06,572.292 601.458,616.066 605.833,630.209 620.834,631.876 652.709,608.133 	"/>
	<polygon fill="#B4B6B7" points="757.324,572.292 797.926,616.066 793.551,630.209 778.551,631.876 746.676,608.133 	"/>
	<path fill="#FFFFFF" d="M761.307,598.956V640H635.706v-41.044c0-0.068,0-0.137,0.007-0.206c0.068-4.563,2.618-8.55,6.35-10.669
		c1.294-0.737,2.731-1.25,4.25-1.481c0.619-0.093,1.25-0.144,1.894-0.144h100.601c1.437,0,2.813,0.244,4.1,0.7
		c1.75,0.606,3.332,1.6,4.631,2.875c2.275,2.231,3.713,5.313,3.763,8.719C761.307,598.819,761.307,598.888,761.307,598.956z"/>
</g>
<g id="icons">
	<g id="_x34_6" opacity="0.8">
		<path fill="#FFFFFF" d="M432.698,220.397c0-10.224,8.365-18.588,18.588-18.588h149.586c10.223,0,18.587,8.365,18.587,18.588
			v92.318c0,10.222-8.365,18.588-18.587,18.588H451.286c-10.223,0-18.588-8.366-18.588-18.588V220.397z"/>
		<polygon fill="#FFFFFF" points="619.46,297.048 619.46,366.442 566.2,327.717 		"/>
		<rect id="_x34_5" x="467.153" y="229.225" fill="#5692C7" width="117.851" height="9.69"/>
		<rect id="_x34_4" x="467.153" y="250.605" fill="#5692C7" width="117.851" height="9.69"/>
	</g>
	<g id="_x34_3" opacity="0.7">
		<path fill="#FFFFFF" d="M935.495,245.616c0-8.456-6.921-15.377-15.379-15.377H796.363c-8.458,0-15.377,6.921-15.377,15.377v76.378
			c0,8.456,6.919,15.377,15.377,15.377h123.753c8.458,0,15.379-6.921,15.379-15.377V245.616z"/>
		<polygon fill="#FFFFFF" points="780.986,309.033 780.986,366.442 825.048,334.404 		"/>
	</g>
	<g id="_x34_2" opacity="0.4">
		<path fill="#FFFFFF" d="M860.286,161.683c0-4.446-3.638-8.083-8.084-8.083h-10.067c-4.444,0-8.084,3.637-8.084,8.083v40.149
			c0,4.446,3.64,8.084,8.084,8.084h10.067c4.446,0,8.084-3.638,8.084-8.084V161.683z"/>
		<path fill="#FFFFFF" d="M924.543,164.721c0-3.978-3.255-7.232-7.233-7.232h-46.335c-3.977,0-7.23,3.254-7.23,7.232v35.918
			c0,3.978,3.254,7.232,7.23,7.232h46.335c3.979,0,7.233-3.254,7.233-7.232V164.721z"/>
		<path fill="#FFFFFF" d="M894.03,131.975v13.643c0,1.642-0.548,3.294-1.672,4.665l-10.005,12.183
			c-0.313-0.227-0.61-0.479-0.885-0.754c-1.334-1.332-2.155-3.172-2.155-5.206v-24.53c0-4.063,3.294-7.357,7.358-7.357
			c2.031,0,3.869,0.822,5.203,2.154C893.208,128.104,894.03,129.945,894.03,131.975z"/>
		<path fill="#FFFFFF" d="M894.03,145.618c0,1.642,0,16.847,0,16.847l-17.238,6.773c-2.58,3.142-7.217,3.599-10.356,1.018
			c-1.772-1.457-2.69-3.566-2.69-5.692c0-1.643,0.548-3.294,1.672-4.664l13.896-16.924l1.671-2.036
			c2.577-3.141,7.215-3.596,10.355-1.018C893.11,141.379,894.03,143.49,894.03,145.618z"/>
		<circle fill="#FFFFFF" cx="920.449" cy="164.675" r="7.253"/>
		<circle fill="#FFFFFF" cx="921.624" cy="189.012" r="7.254"/>
		<circle fill="#FFFFFF" cx="920.449" cy="200.618" r="7.253"/>
		<circle fill="#FFFFFF" cx="923.055" cy="176.322" r="7.253"/>
		<rect x="908.824" y="175.892" fill="#FFFFFF" width="11.301" height="31.98"/>
		<rect x="911.718" y="157.42" fill="#FFFFFF" width="8.731" height="9.16"/>
	</g>
	<g id="_x34_1" opacity="0.4">
		<path fill="#FFFFFF" d="M711.744,250.283c0-3.724,3.049-6.772,6.772-6.772h8.435c3.725,0,6.771,3.048,6.771,6.772v33.635
			c0,3.724-3.047,6.772-6.771,6.772h-8.435c-3.724,0-6.772-3.048-6.772-6.772V250.283z"/>
		<path fill="#FFFFFF" d="M658.123,252.829c0-3.333,2.727-6.059,6.058-6.059h38.817c3.332,0,6.06,2.726,6.06,6.059v30.091
			c0,3.331-2.728,6.058-6.06,6.058H664.18c-3.331,0-6.058-2.727-6.058-6.058V252.829z"/>
		<path fill="#FFFFFF" d="M683.685,225.396v11.43c0,1.375,0.458,2.76,1.4,3.907l8.381,10.205c0.264-0.189,0.512-0.4,0.742-0.629
			c1.116-1.116,1.806-2.658,1.806-4.363v-20.55c0-3.405-2.76-6.165-6.166-6.165c-1.701,0-3.242,0.688-4.358,1.805
			C684.373,222.153,683.685,223.693,683.685,225.396z"/>
		<path fill="#FFFFFF" d="M683.685,236.825c0,1.375,0,14.112,0,14.112l14.441,5.675c2.16,2.632,6.045,3.016,8.676,0.853
			c1.483-1.219,2.253-2.986,2.253-4.768c0-1.375-0.459-2.76-1.4-3.907l-11.641-14.179l-1.4-1.706
			c-2.161-2.631-6.045-3.011-8.676-0.853C684.454,233.275,683.685,235.042,683.685,236.825z"/>
		<circle fill="#FFFFFF" cx="661.552" cy="252.789" r="6.077"/>
		<circle fill="#FFFFFF" cx="660.567" cy="273.177" r="6.077"/>
		<circle fill="#FFFFFF" cx="661.552" cy="282.901" r="6.077"/>
		<circle fill="#FFFFFF" cx="659.368" cy="262.547" r="6.077"/>
		<rect x="661.823" y="262.186" fill="#FFFFFF" width="9.466" height="26.792"/>
		<rect x="661.551" y="246.711" fill="#FFFFFF" width="7.316" height="7.675"/>
	</g>
	<g id="_x34_0" opacity="0.4">
		<path fill="#FFFFFF" d="M813.495,298.468c0-2.279-1.863-4.143-4.143-4.143h-5.158c-2.279,0-4.143,1.863-4.143,4.143v20.574
			c0,2.279,1.863,4.143,4.143,4.143h5.158c2.279,0,4.143-1.863,4.143-4.143V298.468z"/>
		<path fill="#FFFFFF" d="M847.985,300.024c0-2.039-1.669-3.706-3.707-3.706h-23.747c-2.037,0-3.705,1.667-3.705,3.706v18.407
			c0,2.039,1.668,3.708,3.705,3.708h23.747c2.038,0,3.707-1.668,3.707-3.708V300.024z"/>
		<path fill="#FFFFFF" d="M832.348,283.243v6.992c0,0.84-0.281,1.687-0.856,2.389l-5.127,6.244
			c-0.161-0.116-0.313-0.245-0.454-0.386c-0.683-0.684-1.104-1.626-1.104-2.668v-12.571c0-2.083,1.688-3.771,3.771-3.771
			c1.041,0,1.985,0.422,2.667,1.104C831.926,281.259,832.348,282.201,832.348,283.243z"/>
		<path fill="#FFFFFF" d="M832.348,290.235c0,0.84,0,8.633,0,8.633l-8.835,3.473c-1.321,1.609-3.697,1.843-5.307,0.521
			c-0.909-0.748-1.379-1.828-1.379-2.918c0-0.84,0.281-1.687,0.856-2.391l7.122-8.673l0.856-1.042
			c1.32-1.611,3.696-1.843,5.307-0.522C831.877,288.061,832.348,289.144,832.348,290.235z"/>
		<circle fill="#FFFFFF" cx="845.887" cy="300" r="3.718"/>
		<circle fill="#FFFFFF" cx="846.49" cy="312.473" r="3.717"/>
		<circle fill="#FFFFFF" cx="845.887" cy="318.42" r="3.718"/>
		<circle fill="#FFFFFF" cx="847.222" cy="305.969" r="3.718"/>
		<rect x="839.929" y="305.749" fill="#FFFFFF" width="5.793" height="16.39"/>
		<rect x="841.413" y="296.283" fill="#FFFFFF" width="4.473" height="4.693"/>
	</g>
	<g id="_x33_9">
		<path fill="#FFFFFF" d="M522.623,145.065c0-3.083,2.523-5.606,5.606-5.606h6.982c3.083,0,5.605,2.523,5.605,5.606v27.843
			c0,3.084-2.522,5.606-5.605,5.606h-6.982c-3.083,0-5.606-2.522-5.606-5.606V145.065z"/>
		<path fill="#FFFFFF" d="M478.025,147.172c0-2.758,2.256-5.016,5.016-5.016h32.134c2.758,0,5.016,2.257,5.016,5.016v24.91
			c0,2.758-2.257,5.016-5.016,5.016h-32.134c-2.759,0-5.016-2.257-5.016-5.016V147.172z"/>
		<path fill="#FFFFFF" d="M499.187,124.462v9.461c0,1.139,0.379,2.285,1.158,3.234l6.938,8.45c0.219-0.157,0.424-0.333,0.615-0.522
			c0.924-0.925,1.494-2.201,1.494-3.611v-17.012c0-2.818-2.284-5.103-5.103-5.103c-1.408,0-2.684,0.57-3.609,1.494
			C499.756,121.777,499.187,123.054,499.187,124.462z"/>
		<path fill="#FFFFFF" d="M499.187,133.923c0,1.139,0,11.684,0,11.684l11.955,4.698c1.788,2.178,5.004,2.496,7.182,0.706
			c1.229-1.01,1.865-2.473,1.865-3.947c0-1.139-0.379-2.285-1.159-3.235l-9.638-11.737l-1.158-1.412
			c-1.788-2.179-5.004-2.494-7.182-0.706C499.822,130.984,499.187,132.447,499.187,133.923z"/>
		<circle fill="#FFFFFF" cx="480.864" cy="147.14" r="5.031"/>
		<circle fill="#FFFFFF" cx="480.048" cy="164.018" r="5.031"/>
		<circle fill="#FFFFFF" cx="480.864" cy="172.066" r="5.031"/>
		<circle fill="#FFFFFF" cx="479.056" cy="155.218" r="5.031"/>
		<rect x="481.088" y="154.918" fill="#FFFFFF" width="7.837" height="22.179"/>
		<rect x="480.864" y="142.109" fill="#FFFFFF" width="6.055" height="6.352"/>
	</g>
	<g id="_x33_8">
		<path fill="#FFFFFF" d="M710.912,104.703c0-3.569-2.921-6.49-6.492-6.49h-8.082c-3.569,0-6.49,2.921-6.49,6.49v32.236
			c0,3.57,2.921,6.49,6.49,6.49h8.082c3.571,0,6.492-2.92,6.492-6.49V104.703z"/>
		<path fill="#FFFFFF" d="M763.547,107.142c0-3.193-2.613-5.806-5.809-5.806h-37.203c-3.19,0-5.805,2.613-5.805,5.806v28.84
			c0,3.194,2.614,5.807,5.805,5.807h37.203c3.195,0,5.809-2.613,5.809-5.807V107.142z"/>
		<path fill="#FFFFFF" d="M739.048,80.85v10.954c0,1.318-0.44,2.645-1.343,3.745l-8.031,9.782c-0.254-0.183-0.491-0.385-0.712-0.605
			c-1.069-1.07-1.729-2.548-1.729-4.18V80.85c0-3.263,2.645-5.908,5.906-5.908c1.632,0,3.109,0.66,4.179,1.73
			C738.388,77.742,739.048,79.22,739.048,80.85z"/>
		<path fill="#FFFFFF" d="M739.048,91.804c0,1.318,0,13.527,0,13.527l-13.841,5.439c-2.071,2.521-5.792,2.889-8.316,0.817
			c-1.422-1.17-2.158-2.864-2.158-4.57c0-1.319,0.438-2.646,1.341-3.745l11.159-13.589l1.341-1.635
			c2.069-2.521,5.792-2.887,8.314-0.817C738.31,88.401,739.048,90.095,739.048,91.804z"/>
		<circle fill="#FFFFFF" cx="760.259" cy="107.105" r="5.825"/>
		<circle fill="#FFFFFF" cx="761.204" cy="126.646" r="5.824"/>
		<circle fill="#FFFFFF" cx="760.259" cy="135.964" r="5.825"/>
		<circle fill="#FFFFFF" cx="762.353" cy="116.458" r="5.825"/>
		<rect x="750.928" y="116.111" fill="#FFFFFF" width="9.073" height="25.678"/>
		<rect x="753.25" y="101.28" fill="#FFFFFF" width="7.011" height="7.354"/>
	</g>
	<g id="_x33_7">
		<g>
			<path fill="#FFFFFF" d="M876.578,184.875c0-7.278-5.953-13.232-13.231-13.232H756.862c-7.276,0-13.231,5.954-13.231,13.232
				v65.717c0,7.276,5.955,13.231,13.231,13.231h106.484c7.278,0,13.231-5.955,13.231-13.231V184.875z"/>
			<polygon fill="#FFFFFF" points="743.631,239.439 743.631,288.836 781.544,261.271 			"/>
		</g>
		<path fill="#5692C7" d="M786.752,209.677c-2.797,0-5.07,2.133-5.356,4.853c-0.249-2.78-2.542-4.952-5.379-4.952
			c-2.986,0-5.417,2.42-5.417,5.417c0,0.268,0.049,0.527,0.079,0.785c1.111,9.336,10.775,14.208,10.775,14.208
			s8.662-4.443,10.638-14.1c0.05-0.257,0.08-0.525,0.08-0.794C792.172,212.099,789.739,209.677,786.752,209.677z M781.354,215.78
			c0.011-0.07,0.041-0.07,0.05,0H781.354z"/>
		<text transform="matrix(1 0 0 1 800.0488 228.7993)" fill="#5692C7" font-family="'Raleway-Bold'" font-size="30.1597">100</text>
	</g>
	<g id="_x33_6">
		<g>
			<path fill="#FFFFFF" d="M319.176,155.686c0-7.389,6.046-13.434,13.435-13.434h108.112c7.388,0,13.434,6.045,13.434,13.434v66.723
				c0,7.39-6.046,13.433-13.434,13.433H332.61c-7.389,0-13.435-6.043-13.435-13.433V155.686z"/>
			<polygon fill="#FFFFFF" points="454.157,211.085 454.157,261.24 415.664,233.253 			"/>
		</g>
		<text transform="matrix(1 0 0 1 355.1431 204.4507)" fill="#5692C7" font-family="'Raleway-Bold'" font-size="58.4314">+1</text>
	</g>
	<g id="_x33_5">
		<g>
			<path fill="#FFFFFF" d="M466.023,291.032c0-5.223,4.274-9.498,9.497-9.498h76.43c5.225,0,9.498,4.275,9.498,9.498v47.17
				c0,5.224-4.273,9.497-9.498,9.497h-76.43c-5.223,0-9.497-4.273-9.497-9.497V291.032z"/>
			<polygon fill="#FFFFFF" points="561.448,330.196 561.448,365.653 534.235,345.868 			"/>
		</g>
		<polygon fill="#5692C7" points="507.225,309.817 512.217,299.395 517.454,309.696 528.909,311.225 520.729,319.39 
			522.816,330.756 512.524,325.498 502.359,330.996 504.179,319.583 495.809,311.614 		"/>
	</g>
	<g id="_x33_4">
		<g>
			<path fill="#FFFFFF" d="M973.351,293.237c0-4.999-4.089-9.087-9.086-9.087h-73.122c-4.996,0-9.085,4.088-9.085,9.087v45.127
				c0,4.997,4.089,9.085,9.085,9.085h73.122c4.997,0,9.086-4.088,9.086-9.085V293.237z"/>
			<polygon fill="#FFFFFF" points="882.058,330.705 882.058,364.627 908.093,345.697 			"/>
		</g>
		<circle fill="#5692C7" cx="913.02" cy="316.191" r="2.996"/>
		<circle fill="#5692C7" cx="928.473" cy="316.191" r="2.996"/>
		<circle fill="#5692C7" cx="943.926" cy="316.191" r="2.996"/>
	</g>
	<rect id="_x33_3" x="997.444" y="99.881" opacity="0.3" fill="#FFFFFF" width="96.152" height="8.95"/>
	<rect id="_x33_2" x="997.447" y="78.627" opacity="0.3" fill="#FFFFFF" width="45.76" height="8.951"/>
	<rect id="_x33_1" x="327.439" y="64.411" opacity="0.3" fill="#FFFFFF" width="45.76" height="8.952"/>
	<rect id="_x33_0" x="628.216" y="20.721" opacity="0.3" fill="#FFFFFF" width="128.54" height="8.952"/>
	<rect id="_x32_9" x="299.771" y="81.861" opacity="0.3" fill="#FFFFFF" width="73.429" height="8.95"/>
	<g id="_x32_8">
		<g opacity="0.4">
			<path fill="#FFFFFF" d="M564.091,132.067c0-5.353,4.379-9.733,9.734-9.733h78.326c5.354,0,9.734,4.38,9.734,9.733v48.341
				c0,5.353-4.38,9.733-9.734,9.733h-78.326c-5.354,0-9.734-4.38-9.734-9.733V132.067z"/>
			<polygon fill="#FFFFFF" points="661.885,172.204 661.885,208.541 633.998,188.263 			"/>
		</g>
		<polygon fill="#FFFFFF" points="612.989,158.218 583.417,139.577 642.558,139.577 		"/>
		<polygon fill="#FFFFFF" points="612.989,161.993 642.558,143.54 642.558,175.945 583.417,175.945 583.417,143.883 		"/>
	</g>
	<path id="_x32_7" fill="#FFFFFF" d="M711.725,350.076c2.02-0.996,3.412-3.067,3.412-5.474c0-3.37-2.733-6.103-6.103-6.103
		c-3.372,0-6.105,2.732-6.105,6.103c0,2.406,1.394,4.478,3.413,5.474c-1.962,0.48-3.722,1.47-5.131,2.824
		c-2.202-3.84-5.907-6.694-10.316-7.773c2.932-1.446,4.953-4.456,4.953-7.947c0-4.894-3.967-8.862-8.862-8.862
		c-4.895,0-8.861,3.969-8.861,8.862c0,3.491,2.022,6.501,4.955,7.947c-4.218,1.032-7.787,3.689-10.016,7.277
		c-1.309-1.104-2.872-1.906-4.588-2.328c2.021-0.996,3.414-3.067,3.414-5.474c0-3.37-2.733-6.103-6.105-6.103
		c-3.371,0-6.104,2.732-6.104,6.103c0,2.406,1.394,4.478,3.414,5.474c-4.936,1.209-8.603,5.649-8.603,10.958v6.496h65.836v-6.496
		C720.326,355.726,716.659,351.285,711.725,350.076z"/>
	<g id="_x32_6">
		<path opacity="0.7" fill="#FFFFFF" d="M439.386,46.955c2.019-0.995,3.412-3.068,3.412-5.473c0-3.37-2.733-6.103-6.103-6.103
			c-3.372,0-6.105,2.733-6.105,6.103c0,2.405,1.393,4.479,3.413,5.473c-1.962,0.481-3.722,1.468-5.131,2.824
			c-2.202-3.84-5.906-6.694-10.316-7.775c2.932-1.446,4.955-4.455,4.955-7.946c0-4.894-3.969-8.861-8.863-8.861
			c-4.895,0-8.862,3.967-8.862,8.861c0,3.491,2.022,6.5,4.955,7.946c-4.218,1.034-7.787,3.69-10.016,7.28
			c-1.308-1.104-2.871-1.909-4.587-2.33c2.02-0.995,3.413-3.068,3.413-5.473c0-3.37-2.733-6.103-6.104-6.103
			c-3.372,0-6.104,2.733-6.104,6.103c0,2.405,1.393,4.479,3.413,5.473c-4.935,1.209-8.602,5.649-8.602,10.958v6.498h65.836v-6.498
			C447.987,52.604,444.32,48.165,439.386,46.955z"/>
	</g>
	<g id="_x32_5">
		<circle fill="#FFFFFF" cx="701.982" cy="200.288" r="4.972"/>
		<path fill="#FFFFFF" d="M701.983,166.831c-9.498,0-18.071,3.969-24.172,10.349l4.892,4.673c4.863-5.081,11.709-8.255,19.281-8.255
			c7.361,0,14.031,2.996,18.862,7.829l4.783-4.783C719.565,170.581,711.2,166.831,701.983,166.831z"/>
		<path fill="#FFFFFF" d="M701.983,180.871c-5.519,0-10.5,2.313-14.012,6.014l4.882,4.674c2.302-2.412,5.547-3.92,9.129-3.92
			c3.481,0,6.647,1.429,8.931,3.721l4.781-4.783C712.192,183.054,707.342,180.871,701.983,180.871z"/>
	</g>
	<rect id="_x32_4" x="982.461" y="170.363" fill="#5692C7" width="111.136" height="9.992"/>
	<rect id="_x32_3" x="982.461" y="192.412" fill="#5692C7" width="111.136" height="9.981"/>
	<path id="_x32_2" opacity="0.7" fill="#FFFFFF" d="M818.248,39.431c0-11.005-8.931-19.924-19.935-19.924
		c-11.005,0-19.925,8.919-19.925,19.924c0,1.102,0.108,2.173,0.277,3.225h-0.02c0.773,11.153,19.667,35.97,19.667,35.97
		s18.893-24.817,19.667-35.97h-0.02C818.128,41.604,818.248,40.532,818.248,39.431z M798.313,48.322
		c-4.962,0-8.989-4.029-8.989-8.99c0-4.971,4.027-8.99,8.989-8.99c4.971,0,8.991,4.02,8.991,8.99
		C807.305,44.293,803.284,48.322,798.313,48.322z"/>
	<g id="_x32_1">
		<g>
			<path fill="#FFFFFF" d="M971.815,31.217c0-7.353-6.017-13.367-13.368-13.367H850.878c-7.351,0-13.366,6.014-13.366,13.367v66.387
				c0,7.353,6.016,13.367,13.366,13.367h107.569c7.352,0,13.368-6.014,13.368-13.367V31.217z"/>
			<polygon fill="#FFFFFF" points="837.512,86.338 837.512,136.239 875.813,108.392 			"/>
		</g>
		<text transform="matrix(1 0 0 1 885.5566 78.0415)" fill="#5692C7" font-family="'OpenSans-Bold'" font-size="43.2394">@</text>
	</g>
	<g id="_x32_0">
		<g>
			<path fill="#FFFFFF" d="M468.407,31.668c0-5.354,4.38-9.733,9.733-9.733h78.328c5.352,0,9.732,4.379,9.732,9.733v48.341
				c0,5.353-4.38,9.732-9.732,9.732H478.14c-5.354,0-9.733-4.379-9.733-9.732V31.668z"/>
			<polygon fill="#FFFFFF" points="566.2,71.805 566.2,108.141 538.312,87.864 			"/>
		</g>
		<path fill="#5692C7" d="M535.299,49.691c-2.61-8.454-10.499-14.606-19.816-14.606c-9.893,0-18.188,6.955-20.253,16.233h5.13
			c1.945-6.509,7.988-11.272,15.123-11.272c6.539,0,12.145,3.989,14.547,9.645c0.228,0.526,0.417,1.072,0.585,1.627h5.12
			C535.617,50.763,535.467,50.227,535.299,49.691z M530.497,60.745c-2.064,6.311-8.018,10.886-15.014,10.886
			c-6.42,0-11.967-3.86-14.417-9.387c-0.229-0.486-0.417-0.982-0.585-1.499h-5.151c0.12,0.506,0.269,1.002,0.427,1.499
			c2.699,8.325,10.519,14.349,19.727,14.349c9.764,0,17.961-6.757,20.163-15.847H530.497z"/>
		<polygon fill="#5692C7" points="533.123,49.687 537.397,49.687 535.26,53.389 533.123,57.091 530.985,53.389 528.848,49.687 		"/>
		<polygon fill="#5692C7" points="497.98,62.239 502.253,62.239 500.117,58.537 497.98,54.835 495.842,58.537 493.705,62.239 		"/>
	</g>
	<g id="_x31_9">
		<path fill="#FFFFFF" d="M438.125,88.291c-3.989,0-7.234,3.037-7.651,6.926c-0.338-3.959-3.623-7.074-7.67-7.074
			c-4.268,0-7.73,3.463-7.73,7.729c0,0.388,0.059,0.764,0.109,1.132c0.238,2.054,0.774,3.959,1.508,5.715
			c4,9.606,13.882,14.577,13.882,14.577s9.01-4.634,13.406-14.577c0.754-1.696,1.37-3.552,1.777-5.566
			c0.069-0.368,0.109-0.735,0.109-1.132C445.864,91.753,442.402,88.291,438.125,88.291z M430.495,97.003h-0.07
			C430.444,96.904,430.474,96.904,430.495,97.003z"/>
		<path fill="#FFFFFF" d="M1018.946,20.19c-3.988,0-7.242,3.046-7.65,6.926c-0.347-3.959-3.631-7.075-7.67-7.075
			c-4.277,0-7.739,3.473-7.739,7.74c0,0.387,0.069,0.754,0.119,1.131c1.578,13.336,15.38,20.292,15.38,20.292
			s12.365-6.351,15.183-20.144c0.079-0.368,0.119-0.744,0.119-1.132C1026.688,23.654,1023.224,20.19,1018.946,20.19z
			 M1011.246,28.913c0.01-0.109,0.05-0.109,0.061,0H1011.246z"/>
		<path opacity="0.3" fill="#FFFFFF" d="M1341.7,219.637c-3.988,0-7.242,3.046-7.65,6.926c-0.347-3.959-3.631-7.075-7.67-7.075
			c-4.277,0-7.739,3.473-7.739,7.74c0,0.387,0.069,0.754,0.119,1.131c1.578,13.336,15.38,20.292,15.38,20.292
			s12.365-6.351,15.183-20.144c0.079-0.368,0.119-0.744,0.119-1.132C1349.441,223.101,1345.978,219.637,1341.7,219.637z
			 M1334,228.359c0.01-0.109,0.05-0.109,0.061,0H1334z"/>
		<path fill="#FFFFFF" d="M87.838,550.109c-3.988,0-7.242,3.045-7.65,6.926c-0.347-3.959-3.631-7.074-7.67-7.074
			c-4.277,0-7.739,3.473-7.739,7.739c0,0.387,0.069,0.755,0.119,1.131c1.578,13.337,15.38,20.292,15.38,20.292
			s12.365-6.35,15.183-20.143c0.079-0.368,0.119-0.744,0.119-1.133C95.58,553.572,92.116,550.109,87.838,550.109z M80.138,558.831
			c0.01-0.109,0.05-0.109,0.061,0H80.138z"/>
		<path opacity="0.3" fill="#FFFFFF" d="M49.939,60.51c-3.988,0-7.242,3.045-7.65,6.926c-0.347-3.959-3.631-7.074-7.67-7.074
			c-4.277,0-7.739,3.473-7.739,7.739c0,0.387,0.069,0.755,0.119,1.131c1.578,13.337,15.38,20.292,15.38,20.292
			s12.365-6.35,15.183-20.143c0.079-0.368,0.119-0.744,0.119-1.133C57.68,63.973,54.216,60.51,49.939,60.51z M42.239,69.231
			c0.01-0.109,0.05-0.109,0.061,0H42.239z"/>
	</g>
	<g id="_x31_8">
		<g>
			<path fill="#FFFFFF" d="M1249.097,239.278c0-7.66-6.266-13.926-13.926-13.926h-112.067c-7.658,0-13.926,6.266-13.926,13.926
				v69.164c0,7.657,6.268,13.925,13.926,13.925h112.067c7.66,0,13.926-6.268,13.926-13.925V239.278z"/>
			<polygon fill="#FFFFFF" points="1109.178,296.705 1109.178,348.691 1149.079,319.681 			"/>
		</g>
		<path fill="#5692C7" d="M1154.561,265.381c-2.944,0-5.337,2.246-5.638,5.107c-0.262-2.925-2.676-5.211-5.661-5.211
			c-3.143,0-5.701,2.547-5.701,5.7c0,0.282,0.052,0.555,0.083,0.826c1.17,9.825,11.341,14.953,11.341,14.953
			s9.116-4.677,11.195-14.839c0.053-0.271,0.085-0.553,0.085-0.836C1160.265,267.93,1157.704,265.381,1154.561,265.381z
			 M1148.88,271.804c0.011-0.074,0.043-0.074,0.052,0H1148.88z"/>
		<text transform="matrix(1 0 0 1 1168.5547 285.5059)" fill="#5692C7" font-family="'Raleway-Bold'" font-size="31.7412">223</text>
	</g>
	<g id="_x31_7">
		<g>
			<path fill="#FFFFFF" d="M338.564,492.68c0-5-4.089-9.088-9.086-9.088h-73.122c-4.996,0-9.085,4.088-9.085,9.088v45.127
				c0,4.997,4.089,9.085,9.085,9.085h73.122c4.997,0,9.086-4.088,9.086-9.085V492.68z"/>
			<polygon fill="#FFFFFF" points="247.271,530.147 247.271,564.069 273.307,545.14 			"/>
		</g>
		<circle fill="#5692C7" cx="278.234" cy="515.633" r="2.996"/>
		<circle fill="#5692C7" cx="293.687" cy="515.633" r="2.996"/>
		<circle fill="#5692C7" cx="309.14" cy="515.633" r="2.996"/>
	</g>
	<g id="_x31_6">
		<g>
			<path fill="#FFFFFF" d="M1173.133,74.579c0-7.389,6.045-13.434,13.434-13.434h108.113c7.387,0,13.434,6.045,13.434,13.434v66.723
				c0,7.39-6.047,13.433-13.434,13.433h-108.113c-7.389,0-13.434-6.043-13.434-13.433V74.579z"/>
			<polygon fill="#FFFFFF" points="1308.113,129.978 1308.113,180.133 1269.62,152.146 			"/>
		</g>
		<text transform="matrix(1 0 0 1 1209.0996 123.3438)" fill="#5692C7" font-family="'Raleway-Bold'" font-size="58.4314">+3</text>
	</g>
	<g id="_x31_5">
		<path opacity="0.7" fill="#FFFFFF" d="M1117.912,389.574c2.02-0.995,3.412-3.068,3.412-5.474c0-3.37-2.732-6.103-6.103-6.103
			c-3.372,0-6.104,2.732-6.104,6.103c0,2.405,1.393,4.479,3.412,5.474c-1.963,0.48-3.723,1.468-5.131,2.824
			c-2.202-3.841-5.906-6.694-10.316-7.775c2.932-1.445,4.955-4.455,4.955-7.945c0-4.895-3.97-8.861-8.863-8.861
			c-4.895,0-8.863,3.967-8.863,8.861c0,3.49,2.022,6.5,4.955,7.945c-4.219,1.033-7.787,3.69-10.016,7.28
			c-1.309-1.104-2.871-1.909-4.588-2.329c2.02-0.995,3.413-3.068,3.413-5.474c0-3.37-2.733-6.103-6.104-6.103
			s-6.104,2.732-6.104,6.103c0,2.405,1.393,4.479,3.412,5.474c-4.935,1.209-8.602,5.648-8.602,10.957v6.498h65.836v-6.498
			C1126.514,395.223,1122.847,390.783,1117.912,389.574z"/>
	</g>
	<rect id="_x31_4" x="138.028" y="257.163" fill="#5692C7" width="111.136" height="9.992"/>
	<rect id="_x31_3" x="138.028" y="279.211" fill="#5692C7" width="111.136" height="9.981"/>
	<g id="_x31_2">
		<g>
			<path fill="#FFFFFF" d="M214.353,78.79c0-7.353-6.017-13.367-13.368-13.367H93.416c-7.351,0-13.366,6.014-13.366,13.367v66.387
				c0,7.353,6.016,13.367,13.366,13.367h107.569c7.352,0,13.368-6.014,13.368-13.367V78.79z"/>
			<polygon fill="#FFFFFF" points="80.049,133.911 80.049,183.812 118.35,155.965 			"/>
		</g>
		<text transform="matrix(1 0 0 1 128.0942 125.6147)" fill="#5692C7" font-family="'OpenSans-Bold'" font-size="43.2394">@</text>
	</g>
	<g id="_x31_1">
		<path fill="#FFFFFF" d="M162.403,374.451c0-3.084,2.523-5.606,5.606-5.606h6.982c3.083,0,5.605,2.522,5.605,5.606v27.843
			c0,3.084-2.522,5.606-5.605,5.606h-6.982c-3.083,0-5.606-2.522-5.606-5.606V374.451z"/>
		<path fill="#FFFFFF" d="M117.805,376.558c0-2.759,2.256-5.016,5.016-5.016h32.134c2.758,0,5.016,2.257,5.016,5.016v24.91
			c0,2.759-2.257,5.016-5.016,5.016H122.82c-2.759,0-5.016-2.257-5.016-5.016V376.558z"/>
		<path fill="#FFFFFF" d="M138.966,353.848v9.461c0,1.139,0.379,2.285,1.158,3.234l6.938,8.45c0.219-0.157,0.424-0.333,0.615-0.522
			c0.924-0.925,1.494-2.201,1.494-3.611v-17.012c0-2.818-2.284-5.103-5.103-5.103c-1.408,0-2.684,0.569-3.609,1.493
			C139.536,351.163,138.966,352.439,138.966,353.848z"/>
		<path fill="#FFFFFF" d="M138.966,363.309c0,1.139,0,11.685,0,11.685l11.955,4.698c1.788,2.178,5.004,2.495,7.182,0.705
			c1.229-1.01,1.865-2.473,1.865-3.947c0-1.139-0.379-2.285-1.159-3.235l-9.638-11.737l-1.158-1.411
			c-1.788-2.179-5.004-2.493-7.182-0.706C139.602,360.37,138.966,361.833,138.966,363.309z"/>
		<circle fill="#FFFFFF" cx="120.644" cy="376.525" r="5.031"/>
		<circle fill="#FFFFFF" cx="119.828" cy="393.403" r="5.031"/>
		<circle fill="#FFFFFF" cx="120.644" cy="401.452" r="5.031"/>
		<circle fill="#FFFFFF" cx="118.836" cy="384.604" r="5.031"/>
		<rect x="120.868" y="384.305" fill="#FFFFFF" width="7.837" height="22.179"/>
		<rect x="120.644" y="371.494" fill="#FFFFFF" width="6.055" height="6.353"/>
	</g>
	<g id="_x31_0" opacity="0.3">
		<path fill="#FFFFFF" d="M1334.041,490.929c0-5.53,4.528-10.058,10.058-10.058h12.527c5.531,0,10.057,4.527,10.057,10.058v49.955
			c0,5.53-4.525,10.057-10.057,10.057h-12.527c-5.529,0-10.058-4.526-10.058-10.057V490.929z"/>
		<path fill="#FFFFFF" d="M1254.404,494.71c0-4.951,4.05-8.998,8.995-8.998h57.65c4.949,0,9,4.047,9,8.998v44.69
			c0,4.947-4.051,8.996-9,8.996h-57.65c-4.945,0-8.995-4.049-8.995-8.996V494.71z"/>
		<path fill="#FFFFFF" d="M1292.367,453.967v16.975c0,2.042,0.681,4.099,2.08,5.803l12.447,15.156
			c0.392-0.279,0.761-0.593,1.101-0.936c1.658-1.656,2.684-3.946,2.684-6.479v-30.52c0-5.057-4.1-9.155-9.158-9.155
			c-2.526,0-4.814,1.021-6.473,2.681S1292.367,451.438,1292.367,453.967z"/>
		<path fill="#FFFFFF" d="M1292.367,470.941c0,2.042,0,20.959,0,20.959l21.446,8.429c3.209,3.91,8.979,4.479,12.887,1.266
			c2.203-1.81,3.347-4.435,3.347-7.08c0-2.044-0.683-4.099-2.08-5.804l-17.288-21.058l-2.08-2.533
			c-3.208-3.907-8.978-4.471-12.885-1.265C1293.509,465.668,1292.367,468.293,1292.367,470.941z"/>
		<path fill="#FFFFFF" d="M1250.471,494.649c0,4.989,4.038,9.026,9.024,9.026c4.984,0,9.027-4.037,9.027-9.026
			c0-4.982-4.043-9.025-9.027-9.025C1254.509,485.624,1250.471,489.667,1250.471,494.649z"/>
		<circle fill="#FFFFFF" cx="1258.034" cy="524.93" r="9.025"/>
		<path fill="#FFFFFF" d="M1250.471,539.372c0,4.984,4.038,9.024,9.024,9.024c4.984,0,9.027-4.04,9.027-9.024
			c0-4.987-4.043-9.026-9.027-9.026C1254.509,530.346,1250.471,534.385,1250.471,539.372z"/>
		<circle fill="#FFFFFF" cx="1256.253" cy="509.145" r="9.026"/>
		<rect x="1259.898" y="508.607" fill="#FFFFFF" width="14.06" height="39.789"/>
		<rect x="1259.495" y="485.624" fill="#FFFFFF" width="10.866" height="11.398"/>
	</g>
	<rect id="_x39_" x="171.551" y="439.108" opacity="0.3" fill="#FFFFFF" width="45.76" height="8.952"/>
	<rect id="_x38_" x="143.882" y="456.559" opacity="0.3" fill="#FFFFFF" width="73.429" height="8.95"/>
	<rect id="_x37_" x="1284.074" y="302.599" opacity="0.3" fill="#FFFFFF" width="45.76" height="8.952"/>
	<rect id="_x36_" x="1256.406" y="320.049" opacity="0.3" fill="#FFFFFF" width="73.428" height="8.951"/>
	<path id="_x35_" fill="#FFFFFF" d="M448.148,469.861c2.02-0.996,3.412-3.067,3.412-5.474c0-3.37-2.733-6.103-6.103-6.103
		c-3.372,0-6.105,2.732-6.105,6.103c0,2.406,1.394,4.478,3.413,5.474c-1.962,0.48-3.722,1.47-5.131,2.824
		c-2.202-3.84-5.907-6.694-10.316-7.773c2.932-1.446,4.953-4.456,4.953-7.947c0-4.894-3.967-8.862-8.862-8.862
		c-4.895,0-8.861,3.969-8.861,8.862c0,3.491,2.022,6.501,4.955,7.947c-4.218,1.032-7.787,3.689-10.016,7.277
		c-1.309-1.104-2.872-1.906-4.588-2.328c2.021-0.996,3.414-3.067,3.414-5.474c0-3.37-2.733-6.103-6.105-6.103
		c-3.371,0-6.104,2.732-6.104,6.103c0,2.406,1.394,4.478,3.414,5.474c-4.936,1.209-8.603,5.649-8.603,10.958v6.496h65.836v-6.496
		C456.75,475.511,453.083,471.07,448.148,469.861z"/>
	<rect id="_x34_" x="1079.025" y="577.774" opacity="0.3" fill="#FFFFFF" width="200.225" height="8.951"/>
	<g id="_x33_" opacity="0.2">
		<circle fill="#FFFFFF" cx="1161.132" cy="534.97" r="16.515"/>
		<path fill="#FFFFFF" d="M1161.139,423.853c-31.545,0-60.015,13.185-80.279,34.37l16.243,15.522
			c16.151-16.875,38.887-27.419,64.036-27.419c24.448,0,46.601,9.95,62.646,26.005l15.886-15.886
			C1219.532,436.311,1191.749,423.853,1161.139,423.853z"/>
		<path fill="#FFFFFF" d="M1161.139,470.482c-18.328,0-34.872,7.68-46.535,19.973l16.216,15.522
			c7.642-8.012,18.423-13.019,30.319-13.019c11.563,0,22.077,4.744,29.66,12.356l15.88-15.886
			C1195.045,477.734,1178.935,470.482,1161.139,470.482z"/>
	</g>
	<g id="_x32_" opacity="0.3">
		<g>
			<path fill="#FFFFFF" d="M32.337,227.02c0-8.39,6.865-15.256,15.254-15.256h122.763c8.393,0,15.256,6.866,15.256,15.256v75.766
				c0,8.39-6.863,15.254-15.256,15.254H47.591c-8.39,0-15.254-6.864-15.254-15.254V227.02z"/>
			<polygon fill="#FFFFFF" points="185.61,289.927 185.61,346.878 141.901,315.1 			"/>
		</g>
		<polygon fill="#5692C7" points="98.517,257.193 106.535,240.453 114.946,257 133.345,259.454 120.208,272.569 123.56,290.826 
			107.028,282.38 90.7,291.211 93.623,272.88 80.179,260.08 		"/>
	</g>
	<g id="_x31_">
		<path opacity="0.3" fill="#FFFFFF" d="M390.913,303.883c0-30.055-24.39-54.415-54.441-54.415
			c-30.055,0-54.415,24.36-54.415,54.415c0,3.008,0.296,5.934,0.757,8.809h-0.053c2.112,30.457,53.711,98.234,53.711,98.234
			s51.596-67.777,53.71-98.234h-0.053C390.585,309.816,390.913,306.891,390.913,303.883z M336.472,328.166
			c-13.551,0-24.55-11.005-24.55-24.553c0-13.575,10.999-24.553,24.55-24.553c13.575,0,24.555,10.978,24.555,24.553
			C361.027,317.161,350.046,328.166,336.472,328.166z"/>
	</g>
</g>
</svg>
