<?xml version="1.0" encoding="utf-8"?>
<!-- Generator: Adobe Illustrator 16.0.0, SVG Export Plug-In . SVG Version: 6.00 Build 0)  -->
<!DOCTYPE svg PUBLIC "-//W3C//DTD SVG 1.1//EN" "http://www.w3.org/Graphics/SVG/1.1/DTD/svg11.dtd">
<svg version="1.1" id="Layer_1" xmlns="http://www.w3.org/2000/svg" xmlns:xlink="http://www.w3.org/1999/xlink" x="0px" y="0px"
	 width="500px" height="99.152px" viewBox="0 0 500 99.152" enable-background="new 0 0 500 99.152" xml:space="preserve">
<g>
	<g>
		<path fill="#323031" d="M152.648,54.52c2.005,1.049,5.199,2.096,8.442,2.096c3.491,0,5.339-1.452,5.339-3.692
			c0-2.043-1.593-3.292-5.637-4.692c-5.595-1.997-9.284-5.088-9.284-10.031c0-5.74,4.836-10.085,12.726-10.085
			c3.846,0,6.594,0.751,8.583,1.7l-1.691,6.086c-1.304-0.647-3.747-1.597-6.991-1.597c-3.301,0-4.894,1.547-4.894,3.243
			c0,2.15,1.849,3.099,6.24,4.795c5.942,2.195,8.69,5.29,8.69,10.08c0,5.646-4.3,10.433-13.535,10.433
			c-3.845,0-7.634-1.04-9.532-2.097L152.648,54.52z"/>
		<path fill="#323031" d="M179.354,29.113c2.344-0.4,5.645-0.697,10.283-0.697c4.696,0,8.088,0.899,10.333,2.744
			c2.146,1.65,3.549,4.444,3.549,7.737c0,3.346-1.048,6.14-3.045,7.988c-2.6,2.394-6.495,3.544-10.985,3.544
			c-0.999,0-1.898-0.053-2.591-0.201v12.082h-7.543V29.113z M186.897,44.39c0.644,0.148,1.444,0.198,2.542,0.198
			c4.044,0,6.545-2.046,6.545-5.442c0-3.091-2.104-4.939-5.942-4.939c-1.551,0-2.599,0.099-3.144,0.248V44.39z"/>
		<path fill="#323031" d="M215.989,28.664v12.977h12.536V28.664h7.584v33.646h-7.584v-14.03h-12.536v14.03h-7.584V28.664H215.989z"
			/>
		<path fill="#323031" d="M262.767,48.079h-12.388v7.993h13.832v6.239h-21.408V28.664h20.714v6.239h-13.138v6.99h12.388V48.079z"/>
		<path fill="#323031" d="M269.394,29.163c2.45-0.45,6.049-0.747,10.134-0.747c5.001,0,8.492,0.747,10.894,2.694
			c2.038,1.597,3.144,3.945,3.144,7.036c0,4.246-3.054,7.188-5.949,8.24v0.148c2.353,0.949,3.647,3.145,4.489,6.239
			c1.057,3.841,2.055,8.232,2.698,9.536h-7.782c-0.503-0.949-1.345-3.697-2.294-7.841c-0.958-4.241-2.394-5.339-5.538-5.389h-2.252
			v13.229h-7.543V29.163z M276.937,43.589h2.995c3.797,0,6.041-1.898,6.041-4.84c0-3.045-2.096-4.642-5.587-4.642
			c-1.85,0-2.905,0.099-3.449,0.248V43.589z"/>
		<path fill="#323031" d="M319.009,48.079h-12.38v7.993h13.832v6.239h-21.416V28.664h20.715v6.239h-13.131v6.99h12.38V48.079z"/>
		<path fill="#6EBD44" d="M336.679,29.113c2.69-0.4,5.834-0.697,9.284-0.697c6.239,0,10.687,1.398,13.625,4.143
			c3.054,2.744,4.795,6.688,4.795,12.127c0,5.493-1.741,9.981-4.845,13.085c-3.186,3.136-8.385,4.836-14.921,4.836
			c-3.145,0-5.694-0.099-7.938-0.396V29.113z M341.076,58.91c1.099,0.198,2.691,0.198,4.383,0.198
			c9.293,0.05,14.335-5.183,14.335-14.273c0.042-8.034-4.448-12.978-13.633-12.978c-2.245,0-3.937,0.202-5.085,0.45V58.91z"/>
		<path fill="#6EBD44" d="M374.311,28.664v33.646h-4.39V28.664H374.311z"/>
		<path fill="#6EBD44" d="M407.553,60.809c-1.947,0.759-5.834,1.849-10.373,1.849c-5.092,0-9.293-1.296-12.577-4.44
			c-2.905-2.797-4.704-7.287-4.704-12.532c0-10.031,6.948-17.368,18.222-17.368c3.896,0,6.982,0.846,8.435,1.547l-1.089,3.544
			c-1.8-0.849-4.044-1.452-7.444-1.452c-8.188,0-13.526,5.096-13.526,13.531c0,8.538,5.092,13.571,12.981,13.571
			c2.848,0,4.787-0.396,5.785-0.892V48.128h-6.783v-3.491h11.074V60.809z"/>
		<path fill="#6EBD44" d="M418.488,28.664v33.646h-4.398V28.664H418.488z"/>
		<path fill="#6EBD44" d="M432.46,32.357h-10.232v-3.693h24.906v3.693h-10.274v29.954h-4.399V32.357z"/>
		<path fill="#6EBD44" d="M452.581,51.727l-3.499,10.584h-4.498l11.438-33.646h5.24l11.479,33.646h-4.646l-3.59-10.584H452.581z
			 M463.615,48.33l-3.351-9.681c-0.693-2.199-1.197-4.196-1.7-6.14h-0.148c-0.446,1.943-0.999,4.043-1.65,6.086l-3.285,9.734
			H463.615z"/>
		<path fill="#6EBD44" d="M477.628,28.664h4.399v29.998h14.376v3.648h-18.775V28.664z"/>
	</g>
	<g>
		<rect x="42.638" y="43.866" fill="#323031" width="10.761" height="10.365"/>
		<rect x="31.868" y="33.5" fill="#323031" width="10.77" height="10.366"/>
		<rect x="31.868" y="54.23" fill="#323031" width="10.77" height="10.365"/>
		<rect x="15.849" y="32.019" fill="#323031" width="9.012" height="8.616"/>
		<rect x="21.437" y="45.145" fill="#323031" width="7.601" height="7.808"/>
		<rect x="46.005" y="25.759" fill="#323031" width="6.636" height="7.068"/>
		<rect x="46.781" y="67.089" fill="#323031" width="6.619" height="7.063"/>
		<path fill="#323031" d="M53.399,63.787h10.778v-6.255h6.627v7.063h-6.627v9.557H53.482c0.066,3.863,0.157,7.156,0.289,9.533
			c0.858,15.333,17.496,8.418,17.496,8.418l56.152-32.401c19.171-10.778,3.243-19.868,3.243-19.868L71.267,5.927
			c-17.496-6.908-17.496,9.074-17.496,9.074s-0.058,3.491-0.132,8.938h10.539v10.366H53.531c-0.033,3.024-0.065,6.247-0.09,9.561
			h10.737V54.23H53.399"/>
		<rect x="24.11" y="61.056" fill="#323031" width="5.736" height="5.29"/>
		<rect x="26.132" y="28.317" fill="#323031" width="5.736" height="5.282"/>
		<rect x="22.047" y="20.477" fill="#323031" width="4.704" height="4.271"/>
		<rect x="33.758" y="17.915" fill="#323031" width="3.359" height="3.231"/>
		<rect x="4.271" y="38.683" fill="#323031" width="3.359" height="3.231"/>
		<rect x="15.916" y="54.899" fill="#323031" width="3.367" height="3.235"/>
		<path fill="#6EBD44" d="M84.265,25.564l46.604,26.607c0,0,12.23,7.135-2.542,15.594L84.265,93.192c0,0-13.047,5.414-13.732-6.619
			c-0.677-12.032,0-53.891,0-53.891S70.532,20.143,84.265,25.564z"/>
	</g>
	<g>
		<g>
			<path fill="#404041" d="M151.377,87.613V74.806h2.467v11.479h4.63l-0.132,1.328H151.377z"/>
			<path fill="#404041" d="M163.946,87.787c-1.395,0-2.451-0.379-3.186-1.131c-0.743-0.759-1.114-1.865-1.114-3.317
				c0-0.685,0.09-1.304,0.28-1.857c0.181-0.552,0.446-1.015,0.809-1.402c0.363-0.388,0.817-0.685,1.354-0.883
				c0.527-0.215,1.155-0.313,1.856-0.313c1.42,0,2.484,0.379,3.21,1.155c0.726,0.759,1.081,1.856,1.081,3.268
				c0,0.702-0.091,1.321-0.264,1.873c-0.19,0.554-0.454,1.016-0.817,1.403s-0.809,0.685-1.354,0.892
				C165.275,87.681,164.648,87.787,163.946,87.787z M162.188,83.322c0,1.122,0.132,1.947,0.396,2.476s0.718,0.793,1.345,0.793
				c0.248,0,0.479-0.018,0.685-0.067c0.215-0.032,0.388-0.099,0.528-0.181c0.099-0.05,0.173-0.166,0.239-0.347
				c0.074-0.182,0.132-0.396,0.19-0.677c0.049-0.264,0.083-0.57,0.099-0.908c0.033-0.347,0.041-0.7,0.041-1.072
				c0-1.09-0.14-1.914-0.404-2.459c-0.281-0.537-0.718-0.81-1.329-0.81c-0.239,0-0.462,0.024-0.685,0.066
				c-0.223,0.05-0.421,0.132-0.578,0.23c-0.099,0.05-0.181,0.166-0.256,0.347c-0.066,0.174-0.116,0.396-0.156,0.661
				c-0.05,0.271-0.083,0.577-0.091,0.908C162.188,82.612,162.188,82.959,162.188,83.322z"/>
			<path fill="#404041" d="M168.948,79.171c0.099-0.024,0.214-0.042,0.371-0.058c0.149-0.032,0.322-0.05,0.487-0.074
				c0.173-0.025,0.355-0.041,0.528-0.058s0.322-0.017,0.454-0.017c0.289,0,0.545,0.033,0.751,0.082
				c0.215,0.066,0.388,0.19,0.537,0.372c0.148,0.189,0.313,0.503,0.495,0.94s0.38,0.949,0.586,1.527
				c0.207,0.577,0.404,1.188,0.603,1.831c0.198,0.636,0.379,1.247,0.553,1.833h0.017c0.313-0.595,0.578-1.122,0.768-1.585
				c0.189-0.453,0.338-0.883,0.437-1.288c0.091-0.395,0.157-0.791,0.182-1.171c0.024-0.372,0.041-0.775,0.041-1.205
				c0-0.189-0.017-0.396-0.033-0.628c-0.017-0.23-0.049-0.396-0.074-0.503l1.832-0.264c0.042,0.106,0.083,0.255,0.107,0.438
				c0.033,0.181,0.042,0.362,0.042,0.527c0,0.693-0.091,1.371-0.28,2.056c-0.19,0.685-0.438,1.345-0.735,2.006
				c-0.305,0.644-0.635,1.286-1.007,1.905c-0.363,0.619-0.726,1.214-1.073,1.774h-2.005c-0.24-0.792-0.487-1.585-0.751-2.376
				c-0.264-0.793-0.528-1.52-0.776-2.195c-0.255-0.66-0.495-1.238-0.718-1.725c-0.214-0.487-0.396-0.817-0.544-1.007
				c-0.182-0.223-0.404-0.34-0.685-0.34h-0.107V79.171z"/>
			<path fill="#404041" d="M183.274,78.883c0.404,0,0.801,0.05,1.188,0.164c0.379,0.115,0.743,0.313,1.064,0.595
				c0.322,0.264,0.603,0.627,0.842,1.09c0.231,0.462,0.413,1.031,0.528,1.716v0.115c-0.066,0.1-0.165,0.198-0.297,0.281
				c-0.124,0.082-0.289,0.148-0.496,0.214c-0.198,0.059-0.454,0.115-0.743,0.165c-0.297,0.05-0.652,0.083-1.073,0.116l-2.69,0.215
				v0.354c0,0.669,0.165,1.213,0.528,1.658c0.347,0.43,0.866,0.645,1.584,0.645c0.281,0,0.578-0.034,0.899-0.083
				c0.314-0.066,0.611-0.132,0.892-0.215c0.28-0.081,0.544-0.173,0.784-0.264c0.231-0.083,0.413-0.165,0.528-0.231l0.214,0.628
				c-0.264,0.198-0.562,0.396-0.875,0.61c-0.33,0.198-0.677,0.396-1.048,0.561c-0.363,0.166-0.768,0.298-1.172,0.414
				c-0.412,0.099-0.833,0.156-1.271,0.156c-0.511,0-0.99-0.074-1.428-0.224c-0.429-0.164-0.816-0.403-1.13-0.742
				c-0.33-0.33-0.578-0.76-0.76-1.304c-0.189-0.528-0.28-1.188-0.28-1.956c0-0.866,0.107-1.593,0.313-2.187
				c0.223-0.594,0.512-1.082,0.892-1.453c0.388-0.363,0.833-0.627,1.337-0.793C182.127,78.965,182.68,78.883,183.274,78.883z
				 M182.127,80.317c-0.066,0.067-0.132,0.166-0.198,0.314c-0.058,0.156-0.107,0.339-0.157,0.545
				c-0.042,0.215-0.083,0.429-0.107,0.651c-0.033,0.231-0.041,0.455-0.041,0.669l2.682-0.133c-0.033-0.247-0.066-0.511-0.132-0.774
				c-0.058-0.272-0.132-0.512-0.24-0.743c-0.107-0.215-0.239-0.405-0.396-0.545c-0.157-0.148-0.347-0.231-0.57-0.231
				c-0.157,0-0.305,0.018-0.445,0.058C182.392,80.169,182.251,80.236,182.127,80.317z"/>
			<path fill="#404041" d="M200.407,82.678l-2.715-0.148l0.132-1.039h5.108v5.225c-0.272,0.123-0.619,0.247-1.031,0.371
				c-0.396,0.131-0.842,0.248-1.321,0.354c-0.47,0.099-0.957,0.19-1.469,0.256c-0.495,0.065-0.99,0.099-1.452,0.099
				c-0.949,0-1.758-0.156-2.418-0.479c-0.668-0.33-1.213-0.784-1.625-1.37c-0.421-0.578-0.727-1.287-0.916-2.096
				c-0.19-0.826-0.28-1.733-0.28-2.74c0-0.99,0.157-1.898,0.486-2.69c0.33-0.792,0.784-1.469,1.378-2.03
				c0.603-0.562,1.313-0.981,2.137-1.271c0.817-0.297,1.733-0.445,2.724-0.445c0.248,0,0.527,0,0.825,0.018
				c0.297,0.024,0.603,0.049,0.892,0.081c0.305,0.018,0.578,0.05,0.842,0.1c0.264,0.042,0.479,0.083,0.652,0.132l-0.421,1.865
				c-0.198-0.065-0.462-0.132-0.776-0.206c-0.322-0.074-0.652-0.132-0.999-0.19c-0.347-0.049-0.685-0.099-1.031-0.131
				c-0.347-0.041-0.644-0.067-0.917-0.067c-0.446,0-0.866,0.034-1.262,0.116c-0.388,0.066-0.751,0.23-1.073,0.487
				c-0.173,0.14-0.322,0.362-0.438,0.668c-0.115,0.298-0.206,0.645-0.272,1.023c-0.065,0.396-0.107,0.809-0.132,1.254
				c-0.025,0.446-0.033,0.876-0.033,1.306c0,1.716,0.214,3.028,0.635,3.928c0.429,0.907,1.098,1.369,2.014,1.369
				c0.231,0,0.47-0.017,0.734-0.032c0.256-0.018,0.503-0.041,0.76-0.074c0.248-0.033,0.486-0.065,0.693-0.107
				c0.231-0.034,0.413-0.066,0.569-0.107V82.678z"/>
			<path fill="#404041" d="M210.442,80.995c-0.189-0.065-0.388-0.124-0.602-0.165c-0.214-0.042-0.42-0.066-0.611-0.066
				c-0.14,0-0.264,0.018-0.379,0.033c-0.107,0.033-0.207,0.065-0.306,0.124c-0.099,0.058-0.189,0.124-0.297,0.223
				c-0.09,0.091-0.197,0.198-0.321,0.329v6.141h-2.435v-8.55h2.179l0.214,1.354h0.009c0.065-0.1,0.14-0.214,0.231-0.347
				c0.099-0.132,0.197-0.272,0.305-0.412c0.107-0.133,0.223-0.248,0.33-0.363c0.124-0.116,0.239-0.189,0.354-0.231
				c0.215-0.082,0.455-0.131,0.727-0.148c0.264-0.024,0.562-0.032,0.875-0.032L210.442,80.995z"/>
			<path fill="#404041" d="M215.874,78.883c0.404,0,0.8,0.05,1.188,0.164c0.379,0.115,0.735,0.313,1.065,0.595
				c0.321,0.264,0.594,0.627,0.833,1.09c0.24,0.462,0.421,1.031,0.537,1.716v0.115c-0.075,0.1-0.173,0.198-0.297,0.281
				c-0.124,0.082-0.289,0.148-0.495,0.214c-0.207,0.059-0.454,0.115-0.743,0.165c-0.305,0.05-0.66,0.083-1.073,0.116l-2.699,0.215
				v0.354c0,0.669,0.173,1.213,0.528,1.658c0.355,0.43,0.884,0.645,1.585,0.645c0.289,0,0.586-0.034,0.9-0.083
				c0.322-0.066,0.619-0.132,0.899-0.215c0.28-0.081,0.544-0.173,0.784-0.264c0.231-0.083,0.404-0.165,0.528-0.231l0.207,0.628
				c-0.256,0.198-0.553,0.396-0.867,0.61c-0.331,0.198-0.677,0.396-1.048,0.561c-0.371,0.166-0.768,0.298-1.172,0.414
				c-0.412,0.099-0.833,0.156-1.271,0.156c-0.52,0-0.99-0.074-1.428-0.224c-0.438-0.164-0.816-0.403-1.138-0.742
				c-0.322-0.33-0.57-0.76-0.76-1.304c-0.182-0.528-0.272-1.188-0.272-1.956c0-0.866,0.107-1.593,0.322-2.187
				s0.503-1.082,0.883-1.453c0.388-0.363,0.825-0.627,1.345-0.793C214.717,78.965,215.271,78.883,215.874,78.883z M214.717,80.317
				c-0.065,0.067-0.132,0.166-0.189,0.314c-0.058,0.156-0.116,0.339-0.156,0.545c-0.05,0.215-0.091,0.429-0.116,0.651
				c-0.025,0.231-0.042,0.455-0.042,0.669l2.682-0.133c-0.024-0.247-0.065-0.511-0.124-0.774c-0.058-0.272-0.14-0.512-0.239-0.743
				c-0.107-0.215-0.239-0.405-0.396-0.545c-0.165-0.148-0.347-0.231-0.57-0.231c-0.165,0-0.305,0.018-0.454,0.058
				C214.982,80.169,214.841,80.236,214.717,80.317z"/>
			<path fill="#404041" d="M225.248,78.883c0.413,0,0.809,0.05,1.188,0.164c0.388,0.115,0.743,0.313,1.065,0.595
				c0.33,0.264,0.603,0.627,0.841,1.09c0.24,0.462,0.413,1.031,0.528,1.716v0.115c-0.066,0.1-0.173,0.198-0.289,0.281
				c-0.132,0.082-0.289,0.148-0.495,0.214c-0.207,0.059-0.454,0.115-0.751,0.165c-0.305,0.05-0.66,0.083-1.064,0.116l-2.699,0.215
				v0.354c0,0.669,0.173,1.213,0.52,1.658c0.355,0.43,0.883,0.645,1.585,0.645c0.289,0,0.594-0.034,0.908-0.083
				c0.313-0.066,0.61-0.132,0.899-0.215c0.28-0.081,0.545-0.173,0.776-0.264c0.231-0.083,0.412-0.165,0.528-0.231l0.215,0.628
				c-0.264,0.198-0.553,0.396-0.875,0.61c-0.33,0.198-0.669,0.396-1.041,0.561c-0.371,0.166-0.767,0.298-1.18,0.414
				c-0.404,0.099-0.833,0.156-1.263,0.156c-0.52,0-0.99-0.074-1.428-0.224c-0.445-0.164-0.816-0.403-1.147-0.742
				c-0.313-0.33-0.569-0.76-0.759-1.304c-0.181-0.528-0.272-1.188-0.272-1.956c0-0.866,0.099-1.593,0.322-2.187
				c0.206-0.594,0.503-1.082,0.892-1.453c0.379-0.363,0.817-0.627,1.336-0.793C224.102,78.965,224.654,78.883,225.248,78.883z
				 M224.093,80.317c-0.058,0.067-0.124,0.166-0.182,0.314c-0.058,0.156-0.116,0.339-0.165,0.545
				c-0.041,0.215-0.083,0.429-0.107,0.651c-0.024,0.231-0.041,0.455-0.041,0.669l2.682-0.133c-0.024-0.247-0.074-0.511-0.132-0.774
				c-0.049-0.272-0.132-0.512-0.239-0.743c-0.107-0.215-0.24-0.405-0.396-0.545c-0.157-0.148-0.347-0.231-0.569-0.231
				c-0.157,0-0.297,0.018-0.445,0.058C224.365,80.169,224.225,80.236,224.093,80.317z"/>
			<path fill="#404041" d="M236.464,87.613v-5.735c0-0.503-0.083-0.883-0.248-1.131c-0.157-0.231-0.437-0.354-0.825-0.354
				c-0.14,0-0.297,0.024-0.47,0.058c-0.173,0.033-0.338,0.083-0.504,0.157c-0.173,0.074-0.338,0.148-0.511,0.239
				c-0.166,0.083-0.314,0.182-0.462,0.281v6.485h-2.435v-8.55h2.179l0.215,0.99h0.025c0.172-0.107,0.371-0.231,0.61-0.362
				c0.24-0.133,0.487-0.265,0.768-0.38c0.281-0.124,0.569-0.224,0.866-0.313c0.297-0.083,0.586-0.115,0.875-0.115
				c0.321,0,0.618,0.05,0.916,0.156c0.272,0.107,0.528,0.265,0.735,0.47c0.214,0.215,0.388,0.471,0.511,0.793
				c0.124,0.313,0.182,0.677,0.182,1.105v6.206H236.464z"/>
			<path fill="#404041" d="M242.563,84.479l1.634,1.707l-1.634,1.725l-1.625-1.725L242.563,84.479z"/>
			<path fill="#404041" d="M250.064,87.613V74.806h2.468v11.479h4.639l-0.133,1.328H250.064z"/>
			<path fill="#404041" d="M260.107,74.211l1.544,1.601l-1.544,1.61l-1.518-1.61L260.107,74.211z M261.371,87.613h-2.426v-8.55
				h2.426V87.613z"/>
			<path fill="#404041" d="M262.667,79.171c0.1-0.024,0.214-0.042,0.371-0.058c0.149-0.032,0.321-0.05,0.495-0.074
				c0.165-0.025,0.347-0.041,0.52-0.058c0.166-0.017,0.322-0.017,0.445-0.017c0.298,0,0.554,0.033,0.76,0.082
				c0.215,0.066,0.389,0.19,0.537,0.372c0.148,0.189,0.313,0.503,0.495,0.94c0.181,0.438,0.379,0.949,0.586,1.527
				c0.205,0.577,0.403,1.188,0.602,1.831c0.198,0.636,0.389,1.247,0.554,1.833h0.016c0.314-0.595,0.578-1.122,0.768-1.585
				c0.19-0.453,0.339-0.883,0.438-1.288c0.092-0.395,0.157-0.791,0.182-1.171c0.025-0.372,0.041-0.775,0.041-1.205
				c0-0.189-0.016-0.396-0.032-0.628c-0.017-0.23-0.049-0.396-0.074-0.503l1.832-0.264c0.042,0.106,0.083,0.255,0.107,0.438
				c0.033,0.181,0.041,0.362,0.041,0.527c0,0.693-0.091,1.371-0.28,2.056c-0.19,0.685-0.438,1.345-0.735,2.006
				c-0.305,0.644-0.635,1.286-1.007,1.905c-0.362,0.619-0.726,1.214-1.072,1.774h-2.006c-0.239-0.792-0.486-1.585-0.75-2.376
				c-0.266-0.793-0.529-1.52-0.776-2.195c-0.264-0.66-0.495-1.238-0.719-1.725c-0.205-0.487-0.396-0.817-0.545-1.007
				c-0.181-0.223-0.412-0.34-0.685-0.34h-0.106V79.171z"/>
			<path fill="#404041" d="M276.993,78.883c0.405,0,0.809,0.05,1.188,0.164c0.381,0.115,0.743,0.313,1.057,0.595
				c0.331,0.264,0.61,0.627,0.851,1.09c0.23,0.462,0.403,1.031,0.527,1.716v0.115c-0.065,0.1-0.173,0.198-0.297,0.281
				c-0.124,0.082-0.288,0.148-0.495,0.214c-0.198,0.059-0.453,0.115-0.743,0.165c-0.305,0.05-0.66,0.083-1.072,0.116l-2.69,0.215
				v0.354c0,0.669,0.164,1.213,0.528,1.658c0.338,0.43,0.866,0.645,1.576,0.645c0.28,0,0.586-0.034,0.908-0.083
				c0.313-0.066,0.61-0.132,0.898-0.215c0.272-0.081,0.537-0.173,0.776-0.264c0.231-0.083,0.412-0.165,0.527-0.231l0.216,0.628
				c-0.265,0.198-0.562,0.396-0.875,0.61c-0.33,0.198-0.677,0.396-1.048,0.561c-0.363,0.166-0.76,0.298-1.173,0.414
				c-0.412,0.099-0.833,0.156-1.271,0.156c-0.512,0-0.99-0.074-1.428-0.224c-0.437-0.164-0.817-0.403-1.13-0.742
				c-0.331-0.33-0.579-0.76-0.761-1.304c-0.197-0.528-0.279-1.188-0.279-1.956c0-0.866,0.107-1.593,0.313-2.187
				c0.224-0.594,0.512-1.082,0.9-1.453c0.371-0.363,0.825-0.627,1.329-0.793C275.847,78.965,276.399,78.883,276.993,78.883z
				 M275.847,80.317c-0.066,0.067-0.132,0.166-0.198,0.314c-0.058,0.156-0.107,0.339-0.157,0.545
				c-0.041,0.215-0.083,0.429-0.107,0.651c-0.032,0.231-0.041,0.455-0.041,0.669l2.683-0.133c-0.025-0.247-0.075-0.511-0.132-0.774
				c-0.059-0.272-0.133-0.512-0.24-0.743c-0.106-0.215-0.239-0.405-0.396-0.545c-0.155-0.148-0.347-0.231-0.568-0.231
				c-0.157,0-0.306,0.018-0.445,0.058C276.11,80.169,275.971,80.236,275.847,80.317z"/>
			<path fill="#404041" d="M286.493,74.921c0.264-0.033,0.568-0.066,0.907-0.1c0.354-0.024,0.719-0.05,1.114-0.082
				c0.38-0.017,0.775-0.033,1.172-0.049c0.396-0.018,0.759-0.018,1.097-0.018c0.991,0,1.898,0.107,2.716,0.33
				c0.801,0.215,1.502,0.578,2.08,1.057c0.569,0.495,1.022,1.123,1.345,1.882s0.479,1.683,0.479,2.772
				c0,1.057-0.133,2.014-0.372,2.88c-0.256,0.867-0.652,1.61-1.197,2.221s-1.254,1.081-2.112,1.411
				c-0.858,0.338-1.905,0.504-3.128,0.504c-0.338,0-0.7,0-1.072-0.017c-0.38,0-0.742-0.017-1.105-0.05
				c-0.364-0.017-0.711-0.041-1.049-0.065c-0.329-0.017-0.627-0.05-0.874-0.074V74.921z M288.969,86.343
				c0.09,0.017,0.182,0.032,0.288,0.05c0.116,0.009,0.24,0.016,0.355,0.032c0.115,0.009,0.239,0.018,0.347,0.018
				c0.106,0,0.198,0.008,0.272,0.008c0.743,0,1.362-0.042,1.856-0.141c0.495-0.091,0.925-0.272,1.287-0.545
				c0.189-0.148,0.372-0.329,0.529-0.561c0.164-0.224,0.313-0.521,0.437-0.892c0.115-0.363,0.223-0.817,0.289-1.37
				c0.066-0.544,0.107-1.222,0.107-2.021c0-0.999-0.115-1.824-0.355-2.459c-0.239-0.636-0.553-1.14-0.957-1.511
				c-0.404-0.363-0.883-0.619-1.419-0.759c-0.545-0.149-1.123-0.216-1.75-0.216c-0.092,0-0.198,0-0.313,0
				c-0.116,0.009-0.239,0.018-0.354,0.026c-0.124,0.007-0.239,0.023-0.355,0.032c-0.106,0.008-0.206,0.024-0.264,0.041V86.343z"/>
			<path fill="#404041" d="M301.018,74.211l1.543,1.601l-1.543,1.61l-1.526-1.61L301.018,74.211z M302.28,87.613h-2.427v-8.55h2.427
				V87.613z"/>
			<path fill="#404041" d="M307.322,93.58c-0.561,0-1.04-0.058-1.436-0.157c-0.396-0.099-0.71-0.23-0.958-0.412
				c-0.247-0.165-0.428-0.362-0.536-0.586c-0.099-0.223-0.156-0.454-0.156-0.709c0-0.446,0.156-0.817,0.454-1.114
				c0.288-0.306,0.685-0.586,1.163-0.842l0.562,0.148c-0.033,0.182-0.074,0.347-0.1,0.495c-0.024,0.148-0.033,0.313-0.033,0.495
				c0,0.388,0.133,0.693,0.396,0.924c0.265,0.231,0.652,0.355,1.173,0.355c0.247,0,0.478-0.017,0.718-0.041
				c0.239-0.033,0.462-0.066,0.693-0.116c0.214-0.05,0.42-0.1,0.61-0.165c0.189-0.05,0.354-0.115,0.487-0.198
				c0.182-0.107,0.297-0.279,0.354-0.495c0.042-0.223,0.075-0.495,0.075-0.809c0-0.628-0.644-0.941-1.923-0.941l-1.361-0.016
				c-0.966-0.009-1.668-0.148-2.105-0.43c-0.437-0.264-0.66-0.726-0.66-1.386c0-0.215,0.05-0.43,0.141-0.644
				c0.091-0.216,0.215-0.414,0.347-0.611c0.148-0.198,0.306-0.38,0.479-0.544c0.174-0.166,0.33-0.314,0.479-0.463
				c-0.239-0.1-0.47-0.256-0.693-0.446c-0.222-0.189-0.42-0.412-0.586-0.66c-0.165-0.247-0.297-0.527-0.388-0.842
				c-0.107-0.313-0.148-0.66-0.148-1.031c0-0.553,0.091-1.031,0.281-1.46c0.189-0.43,0.445-0.792,0.783-1.09
				c0.339-0.297,0.734-0.513,1.181-0.677c0.453-0.156,0.948-0.23,1.477-0.23c0.438,0,0.843,0.016,1.181,0.065
				c0.347,0.05,0.677,0.115,0.999,0.223c0.438-0.024,0.907-0.058,1.395-0.107c0.504-0.05,0.932-0.115,1.304-0.181l-0.198,1.105
				c-0.174,0.065-0.403,0.115-0.693,0.148c-0.289,0.05-0.545,0.066-0.759,0.066c0.099,0.182,0.214,0.445,0.33,0.775
				c0.132,0.347,0.189,0.775,0.189,1.305c0,0.543-0.09,1.014-0.281,1.435c-0.181,0.414-0.437,0.761-0.767,1.04
				c-0.33,0.289-0.718,0.504-1.172,0.652c-0.453,0.141-0.949,0.224-1.486,0.224c-0.09,0-0.181,0-0.297-0.009
				c-0.106-0.009-0.214-0.009-0.329-0.017c-0.108-0.009-0.215-0.009-0.306-0.024c-0.107-0.018-0.19-0.033-0.256-0.05
				c-0.049,0.1-0.107,0.239-0.173,0.412c-0.059,0.165-0.1,0.339-0.1,0.504c0,0.206,0.091,0.339,0.289,0.404
				c0.182,0.074,0.528,0.115,1.031,0.115h1.914c0.587,0,1.082,0.042,1.478,0.132c0.396,0.1,0.718,0.239,0.966,0.446
				c0.239,0.198,0.421,0.445,0.52,0.743c0.1,0.305,0.157,0.66,0.157,1.072c0,0.511-0.148,1.007-0.421,1.519
				c-0.297,0.496-0.693,0.949-1.188,1.354c-0.52,0.396-1.114,0.726-1.815,0.974C308.907,93.457,308.148,93.58,307.322,93.58z
				 M308.164,84.494c0.207,0,0.388-0.016,0.537-0.058c0.148-0.041,0.28-0.091,0.396-0.165c0.124-0.074,0.231-0.289,0.306-0.652
				c0.082-0.363,0.124-0.825,0.124-1.378c0-0.313-0.033-0.603-0.092-0.875c-0.057-0.272-0.14-0.504-0.264-0.702
				c-0.115-0.197-0.272-0.354-0.437-0.461c-0.174-0.115-0.372-0.165-0.619-0.165c-0.189,0-0.363,0.008-0.495,0.041
				c-0.149,0.033-0.28,0.09-0.413,0.173c-0.123,0.083-0.223,0.298-0.297,0.651c-0.074,0.355-0.107,0.817-0.107,1.396
				c0,0.297,0.024,0.577,0.083,0.842c0.058,0.264,0.148,0.495,0.256,0.693c0.106,0.215,0.255,0.363,0.429,0.479
				C307.735,84.429,307.933,84.494,308.164,84.494z"/>
			<path fill="#404041" d="M315.922,74.211l1.543,1.601l-1.543,1.61l-1.526-1.61L315.922,74.211z M317.185,87.613h-2.427v-8.55
				h2.427V87.613z"/>
			<path fill="#404041" d="M320.016,80.236l-0.925-0.298v-0.52l2.641-1.857h0.669l0.033,1.502h2.592l-0.107,0.941
				c-0.198,0.033-0.438,0.065-0.719,0.099c-0.288,0.024-0.552,0.05-0.816,0.065c-0.305,0.034-0.618,0.05-0.941,0.083v4.804
				c0,0.313,0.058,0.569,0.166,0.776c0.115,0.214,0.338,0.313,0.693,0.313c0.099,0,0.214,0,0.371-0.017
				c0.156-0.008,0.33-0.017,0.503-0.032c0.166-0.025,0.33-0.05,0.495-0.067c0.165-0.023,0.297-0.049,0.412-0.065v0.71
				c-0.205,0.132-0.445,0.265-0.709,0.396c-0.272,0.133-0.553,0.257-0.858,0.364c-0.297,0.106-0.603,0.198-0.907,0.255
				c-0.306,0.066-0.595,0.1-0.876,0.1c-0.214,0-0.421-0.025-0.635-0.058c-0.198-0.049-0.38-0.132-0.545-0.247
				c-0.165-0.124-0.297-0.29-0.396-0.513c-0.099-0.215-0.14-0.495-0.14-0.858V80.236z"/>
			<path fill="#404041" d="M333.848,86.359c0.206,0,0.486-0.058,0.85-0.165v0.595c-0.133,0.115-0.281,0.23-0.462,0.347
				c-0.173,0.115-0.363,0.223-0.561,0.313c-0.198,0.082-0.405,0.155-0.619,0.205c-0.216,0.05-0.421,0.075-0.619,0.075
				c-0.224,0-0.421-0.033-0.57-0.099c-0.157-0.067-0.297-0.148-0.412-0.24c-0.115-0.099-0.214-0.214-0.297-0.338
				c-0.065-0.133-0.142-0.264-0.198-0.38c-0.198,0.132-0.405,0.28-0.603,0.413c-0.198,0.131-0.404,0.248-0.627,0.354
				c-0.214,0.099-0.446,0.19-0.693,0.247c-0.239,0.066-0.504,0.1-0.801,0.1c-0.66,0-1.188-0.206-1.576-0.627
				c-0.38-0.421-0.577-1.049-0.577-1.891c0-0.444,0.065-0.833,0.173-1.172c0.115-0.33,0.297-0.603,0.553-0.825
				c0.256-0.215,0.578-0.379,0.99-0.495c0.396-0.115,0.892-0.182,1.461-0.198l1.478-0.05v-1.237c0-0.347-0.083-0.585-0.272-0.742
				c-0.182-0.165-0.487-0.239-0.925-0.239c-0.305,0-0.66,0.041-1.057,0.106c-0.412,0.083-0.833,0.198-1.271,0.38l-0.338-0.892
				c0.305-0.124,0.602-0.247,0.924-0.38c0.313-0.115,0.644-0.23,0.975-0.329c0.32-0.091,0.66-0.165,0.998-0.231
				c0.338-0.05,0.677-0.082,1.015-0.082c0.372,0,0.71,0.032,1.016,0.099c0.297,0.065,0.545,0.189,0.742,0.354
				c0.198,0.173,0.355,0.388,0.463,0.669c0.106,0.28,0.165,0.619,0.165,1.023v3.944C333.171,85.897,333.402,86.359,333.848,86.359z
				 M330.835,85.946c-0.009-0.033-0.017-0.132-0.024-0.28c-0.017-0.148-0.017-0.347-0.025-0.586c-0.017-0.239-0.024-0.503-0.024-0.8
				c0-0.298-0.009-0.619-0.009-0.958c-0.594,0-1.04,0.033-1.345,0.107c-0.306,0.074-0.486,0.157-0.569,0.256
				c-0.033,0.032-0.065,0.106-0.083,0.215c-0.024,0.099-0.041,0.214-0.057,0.33c-0.009,0.132-0.018,0.264-0.033,0.396
				c0,0.131,0,0.255,0,0.362c0,0.396,0.058,0.71,0.164,0.94c0.1,0.247,0.272,0.363,0.529,0.363c0.264,0,0.511-0.033,0.75-0.099
				C330.356,86.137,330.596,86.046,330.835,85.946z"/>
			<path fill="#404041" d="M338.502,87.613h-2.434V73.584l2.434-0.495V87.613z"/>
		</g>
	</g>
</g>
</svg>
