<?xml version="1.0" encoding="utf-8"?>
<!-- Generator: Adobe Illustrator 16.0.0, SVG Export Plug-In . SVG Version: 6.00 Build 0)  -->
<!DOCTYPE svg PUBLIC "-//W3C//DTD SVG 1.1//EN" "http://www.w3.org/Graphics/SVG/1.1/DTD/svg11.dtd">
<svg version="1.1" id="Layer_1" xmlns="http://www.w3.org/2000/svg" xmlns:xlink="http://www.w3.org/1999/xlink" x="0px" y="0px"
	 width="1389.551px" height="672.683px" viewBox="0 0 1389.551 672.683" enable-background="new 0 0 1389.551 672.683"
	 xml:space="preserve">
<linearGradient id="SVGID_1_" gradientUnits="userSpaceOnUse" x1="696.5732" y1="597.8516" x2="696.5732" y2="4.882813e-004">
	<stop  offset="0" style="stop-color:#FFFFFF"/>
	<stop  offset="1" style="stop-color:#00AEEF"/>
</linearGradient>
<rect x="0.094" fill="url(#SVGID_1_)" width="1392.958" height="597.852"/>
<g>
	<polygon fill="#00A160" points="866.762,613.274 666.663,394.873 615.025,456.153 426.223,168.904 289.056,365.021 
		222.896,316.311 100.254,514.288 -75.638,613.274 	"/>
	<polygon fill="#00703C" points="-83.708,614.848 389.676,557.578 375.52,579.801 467.522,594.412 866.762,613.274 	"/>
	<polygon fill="#008752" points="426.223,168.904 466.181,306.547 506.048,444.167 542.909,376.604 584.018,613.744 
		866.762,613.274 666.663,394.873 615.025,456.153 	"/>
	<polygon fill="#00703C" points="666.663,394.583 866.762,613.274 692.021,463.746 655.368,476.579 	"/>
	<polygon fill="#12B56B" points="282.705,467.394 426.223,168.904 289.056,365.021 223.107,316.843 100.467,513.949 
		-83.708,614.848 151.206,526.845 255.973,371.914 	"/>
	<g>
		<polygon fill="#D0E4A6" points="355,270.597 426.223,168.614 513.023,300.809 443.973,259.747 429.451,302.171 392.333,261.318 		
			"/>
		<polygon fill="#A0CF67" points="429.451,302.171 426.223,168.614 513.023,300.809 443.973,259.747 		"/>
	</g>
	<g>
		<polygon fill="#D0E4A6" points="289.056,365.021 222.896,316.311 167.431,405.847 200.305,374.447 216.443,410.588 
			248.715,355.593 		"/>
		<polygon fill="#A0CF67" points="216.443,410.588 222.896,316.311 289.056,365.021 248.715,355.593 		"/>
	</g>
	<g>
		<polygon fill="#D0E4A6" points="615.025,456.153 666.663,394.583 746.026,481.138 676.344,443.584 655.368,476.579 
			645.686,446.726 		"/>
		<polygon fill="#A0CF67" points="655.368,476.579 666.663,394.583 746.026,481.138 676.344,443.584 		"/>
	</g>
</g>
<g>
	<g>
		<g>
			<g>
				<g>
					<g>
						<ellipse fill="#79AA33" cx="938.672" cy="599.753" rx="28.571" ry="28.396"/>
						<ellipse fill="#79AA33" cx="977.913" cy="605.681" rx="22.609" ry="22.469"/>
						<ellipse fill="#79AA33" cx="904.27" cy="606.531" rx="21.754" ry="21.618"/>
					</g>
					<path fill="#638E1E" d="M929.625,584.368c0.512,3.053,3.157,5.378,6.372,5.378c3.212,0,5.859-2.325,6.368-5.378H929.625z"/>
					<path fill="#638E1E" d="M898.681,591.264c0.49,2.924,3.029,5.158,6.113,5.158c3.08,0,5.618-2.234,6.108-5.158H898.681z"/>
				</g>
				<g>
					<g>
						<ellipse fill="#79AA33" cx="444.085" cy="606.246" rx="36.274" ry="36.053"/>
						<path fill="#79AA33" d="M424.164,609.881c0,14.054-11.461,25.44-25.598,25.44c-14.138,0-25.6-11.387-25.6-25.44
							c0-14.053,11.461-25.441,25.6-25.441C412.703,584.439,424.164,595.828,424.164,609.881z"/>
					</g>
					<path fill="#638E1E" d="M428.679,581.526c0.51,3.048,3.157,5.38,6.37,5.38c3.211,0,5.859-2.332,6.37-5.38H428.679z"/>
					<path fill="#638E1E" d="M448.474,589.377c0.51,3.047,3.157,5.379,6.37,5.379c3.213,0,5.86-2.332,6.37-5.379H448.474z"/>
					<path fill="#638E1E" d="M391.527,590.501c0.531,3.183,3.293,5.612,6.646,5.612c3.352,0,6.114-2.43,6.647-5.612H391.527z"/>
				</g>
				<g>
					<g>
						<path fill="#79AA33" d="M305.212,608.779c0,18.51-15.102,33.52-33.731,33.52c-18.628,0-33.729-15.01-33.729-33.52
							c0-18.518,15.101-33.528,33.729-33.528C290.111,575.251,305.212,590.262,305.212,608.779z"/>
						<path fill="#79AA33" d="M260.613,603.417c0,21.474-17.517,38.882-39.125,38.882s-39.123-17.408-39.123-38.882
							c0-21.479,17.515-38.887,39.123-38.887S260.613,581.938,260.613,603.417z"/>
						<ellipse fill="#79AA33" cx="172.549" cy="607.089" rx="28.019" ry="27.845"/>
					</g>
					<path fill="#638E1E" d="M256.571,588.95c0.532,3.183,3.294,5.612,6.646,5.612s6.114-2.43,6.648-5.612H256.571z"/>
					<path fill="#638E1E" d="M275.552,583.005c0.534,3.181,3.295,5.615,6.648,5.615c3.352,0,6.114-2.435,6.647-5.615H275.552z"/>
					<path fill="#638E1E" d="M203.394,576.545c0.533,3.183,3.295,5.612,6.647,5.612s6.114-2.43,6.648-5.612H203.394z"/>
					<path fill="#638E1E" d="M191.563,588.692c0.534,3.181,3.296,5.609,6.647,5.609c3.353,0,6.113-2.429,6.646-5.609H191.563z"/>
					<path fill="#638E1E" d="M162.83,591.534c0.533,3.179,3.295,5.615,6.648,5.615c3.352,0,6.114-2.437,6.647-5.615H162.83z"/>
				</g>
				<g>
					<g>
						<path fill="#79AA33" d="M76.959,603.526c0,17.349-14.15,31.407-31.603,31.407c-17.455,0-31.603-14.059-31.603-31.407
							c0-17.348,14.148-31.413,31.603-31.413C62.809,572.113,76.959,586.179,76.959,603.526z"/>
						<ellipse fill="#79AA33" cx="99.249" cy="608.5" rx="26.599" ry="26.434"/>
					</g>
					<path fill="#638E1E" d="M94.442,589.983c0.534,3.18,3.296,5.614,6.648,5.614c3.352,0,6.112-2.435,6.646-5.614H94.442z"/>
					<path fill="#638E1E" d="M55.828,582.685c0.533,3.179,3.296,5.608,6.648,5.608c3.352,0,6.112-2.43,6.646-5.608H55.828z"/>
					<path fill="#638E1E" d="M43.021,590.631c0.532,3.18,3.294,5.609,6.646,5.609c3.352,0,6.114-2.43,6.647-5.609H43.021z"/>
					<path fill="#638E1E" d="M22.869,584.75c0.534,3.18,3.296,5.614,6.648,5.614c3.352,0,6.113-2.435,6.646-5.614H22.869z"/>
				</g>
				<g>
					<g>
						<path fill="#79AA33" d="M666.982,611.716c0,16.892-13.778,30.583-30.775,30.583c-16.997,0-30.775-13.691-30.775-30.583
							c0-16.894,13.778-30.589,30.775-30.589C653.204,581.127,666.982,594.822,666.982,611.716z"/>
						<path fill="#79AA33" d="M719.464,599.202c0,23.806-19.417,43.097-43.364,43.097c-23.948,0-43.364-19.291-43.364-43.097
							c0-23.802,19.416-43.098,43.364-43.098C700.047,556.104,719.464,575.4,719.464,599.202z"/>
						<path fill="#79AA33" d="M755.278,611.063c0,17.251-14.071,31.236-31.432,31.236s-31.435-13.985-31.435-31.236
							c0-17.257,14.074-31.243,31.435-31.243S755.278,593.806,755.278,611.063z"/>
						<path fill="#79AA33" d="M786.104,606.985c0,14.365-11.716,26.011-26.172,26.011s-26.174-11.646-26.174-26.011
							c0-14.368,11.718-26.016,26.174-26.016S786.104,592.617,786.104,606.985z"/>
					</g>
					<g>
						<path fill="#638E1E" d="M642.682,587.082c0.511,3.052,3.158,5.379,6.372,5.379c3.212,0,5.859-2.327,6.37-5.379H642.682z"/>
						<path fill="#638E1E" d="M664.266,574.676c0.51,3.053,3.156,5.379,6.369,5.379s5.86-2.326,6.371-5.379H664.266z"/>
						<path fill="#638E1E" d="M715.49,588.632c0.513,3.053,3.157,5.38,6.372,5.38c3.212,0,5.86-2.327,6.369-5.38H715.49z"/>
						<path fill="#638E1E" d="M757.094,588.377c0.512,3.048,3.161,5.38,6.372,5.38c3.213,0,5.86-2.332,6.372-5.38H757.094z"/>
					</g>
				</g>
				<g>
					<g>
						<g>
							<ellipse fill="#79AA33" cx="1155.204" cy="609.987" rx="32.512" ry="32.312"/>
							<path fill="#79AA33" d="M1143.832,603.303c0,21.539-17.57,38.996-39.238,38.996c-21.672,0-39.239-17.457-39.239-38.996
								c0-21.54,17.567-39.003,39.239-39.003C1126.262,564.3,1143.832,581.763,1143.832,603.303z"/>
						</g>
						<g>
							<ellipse fill="#79AA33" cx="1231.25" cy="613.69" rx="28.789" ry="28.608"/>
							<ellipse fill="#79AA33" cx="1268.567" cy="601.982" rx="40.565" ry="40.316"/>
							<ellipse fill="#79AA33" cx="1313.232" cy="613.076" rx="29.404" ry="29.223"/>
						</g>
					</g>
					<g>
						<path fill="#638E1E" d="M1285.931,586.5c0.512,3.053,3.158,5.378,6.372,5.378c3.212,0,5.859-2.325,6.369-5.378H1285.931z"/>
						<path fill="#638E1E" d="M1258.823,569.636c0.512,3.054,3.157,5.379,6.372,5.379c3.211,0,5.859-2.325,6.367-5.379H1258.823z"/>
						<path fill="#638E1E" d="M1237.564,588.826c0.513,3.052,3.157,5.379,6.373,5.379c3.212,0,5.859-2.327,6.369-5.379H1237.564z"/>
						<path fill="#638E1E" d="M1148.636,588.826c0.511,3.052,3.157,5.379,6.371,5.379c3.212,0,5.86-2.327,6.369-5.379H1148.636z"/>
						<path fill="#638E1E" d="M1104.755,574.095c0.512,3.053,3.157,5.379,6.372,5.379c3.212,0,5.86-2.326,6.368-5.379H1104.755z"/>
						<path fill="#638E1E" d="M1118.797,587.082c0.512,3.052,3.157,5.379,6.372,5.379c3.212,0,5.859-2.327,6.367-5.379H1118.797z"/>
						<path fill="#638E1E" d="M1265.258,584.949c0.512,3.053,3.158,5.379,6.372,5.379c3.213,0,5.859-2.326,6.369-5.379H1265.258z"/>
					</g>
				</g>
				<g>
					<g>
						<rect x="66.006" y="536.605" fill="#B79030" width="23.924" height="77.524"/>
						<g>
							<path fill="#95CF50" d="M133.683,506.671c0-30.835-24.947-55.83-55.716-55.83c-30.771,0-55.717,24.995-55.717,55.83
								c0,30.831,24.946,55.824,55.717,55.824C108.736,562.495,133.683,537.502,133.683,506.671z"/>
							<g>
								<path fill="#79AA33" d="M104.778,520.888c0.477,3.853,3.775,6.835,7.781,6.835s7.304-2.982,7.781-6.835H104.778z"/>
								<path fill="#79AA33" d="M34.692,496.661c0.489,3.94,3.862,6.993,7.959,6.993s7.472-3.053,7.959-6.993H34.692z"/>
								<path fill="#79AA33" d="M56.902,474.053c0.468,3.767,3.69,6.681,7.604,6.681c3.915,0,7.137-2.914,7.604-6.681H56.902z"/>
								<path fill="#79AA33" d="M70.709,504.981c0.468,3.764,3.69,6.681,7.604,6.681c3.914,0,7.137-2.917,7.604-6.681H70.709z"/>
								<path fill="#79AA33" d="M89.221,476.878c0.466,3.765,3.688,6.682,7.603,6.682s7.138-2.917,7.604-6.682H89.221z"/>
								<path fill="#79AA33" d="M104.206,495.04c0.466,3.766,3.688,6.682,7.603,6.682c3.914,0,7.138-2.916,7.604-6.682H104.206z"/>
								<path fill="#79AA33" d="M47.433,527.463c0.466,3.765,3.689,6.684,7.603,6.684s7.138-2.919,7.604-6.684H47.433z"/>
								<path fill="#79AA33" d="M74.521,538.847c0.466,3.762,3.69,6.682,7.603,6.682c3.915,0,7.138-2.92,7.605-6.682H74.521z"/>
							</g>
						</g>
					</g>
					<g>
						<rect x="680.52" y="544.704" fill="#B79030" width="21.427" height="69.426"/>
						<g>
							<ellipse fill="#95CF50" cx="691.233" cy="517.893" rx="49.898" ry="49.998"/>
							<g>
								<path fill="#79AA33" d="M715.244,530.624c0.426,3.45,3.379,6.124,6.969,6.124c3.587,0,6.539-2.674,6.97-6.124H715.244z"/>
								<path fill="#79AA33" d="M652.477,508.93c0.438,3.531,3.46,6.264,7.13,6.264c3.669,0,6.689-2.732,7.127-6.264H652.477z"/>
								<path fill="#79AA33" d="M672.367,488.681c0.418,3.374,3.306,5.984,6.81,5.984c3.506,0,6.392-2.61,6.811-5.984H672.367z"/>
								<path fill="#79AA33" d="M684.734,516.381c0.417,3.371,3.302,5.984,6.809,5.984c3.506,0,6.392-2.613,6.809-5.984H684.734z"/>
								<path fill="#79AA33" d="M701.313,491.212c0.418,3.372,3.304,5.985,6.806,5.985c3.508,0,6.395-2.613,6.813-5.985H701.313z"/>
								<path fill="#79AA33" d="M714.732,507.477c0.416,3.373,3.302,5.984,6.807,5.984c3.508,0,6.394-2.611,6.812-5.984H714.732z"/>
								<path fill="#79AA33" d="M663.886,536.515c0.419,3.371,3.305,5.984,6.811,5.984c3.505,0,6.392-2.613,6.809-5.984H663.886z"/>
								<path fill="#79AA33" d="M688.146,546.709c0.417,3.368,3.305,5.981,6.809,5.981c3.507,0,6.394-2.613,6.812-5.981H688.146z"/>
							</g>
						</g>
					</g>
					<g>
						<rect x="1318.009" y="549.599" fill="#B79030" width="19.914" height="64.531"/>
						<g>
							<ellipse fill="#95CF50" cx="1327.964" cy="524.683" rx="46.375" ry="46.469"/>
							<g>
								<path fill="#79AA33" d="M1350.283,536.515c0.395,3.211,3.141,5.694,6.475,5.694c3.336,0,6.082-2.483,6.479-5.694H1350.283z"
									/>
								<path fill="#79AA33" d="M1291.943,516.353c0.407,3.28,3.218,5.821,6.628,5.821c3.408,0,6.216-2.541,6.624-5.821H1291.943z"
									/>
								<path fill="#79AA33" d="M1310.431,497.536c0.39,3.132,3.071,5.561,6.329,5.561c3.261,0,5.942-2.429,6.329-5.561H1310.431z"
									/>
								<path fill="#79AA33" d="M1321.925,523.276c0.387,3.135,3.071,5.562,6.328,5.562c3.259,0,5.939-2.427,6.33-5.562H1321.925z"
									/>
								<path fill="#79AA33" d="M1337.331,499.887c0.39,3.132,3.072,5.561,6.329,5.561c3.259,0,5.941-2.429,6.329-5.561H1337.331z"
									/>
								<path fill="#79AA33" d="M1349.804,515.003c0.39,3.135,3.072,5.563,6.329,5.563c3.26,0,5.941-2.429,6.329-5.563H1349.804z"/>
								<path fill="#79AA33" d="M1302.548,541.991c0.39,3.131,3.07,5.561,6.331,5.561c3.258,0,5.939-2.43,6.327-5.561H1302.548z"/>
								<path fill="#79AA33" d="M1325.096,551.465c0.388,3.135,3.073,5.56,6.33,5.56c3.258,0,5.938-2.425,6.329-5.56H1325.096z"/>
							</g>
						</g>
					</g>
					<g>
						<g>
							<polygon fill="#E8E3CC" points="574.23,531.306 574.23,513.494 537.775,530.782 537.775,513.494 500.29,531.27 
								498.681,484.667 474.865,484.667 470.386,614.448 496.531,614.448 503.16,614.448 532.988,614.448 537.775,614.448 
								570.55,614.448 574.23,614.448 611.792,614.448 611.792,513.494 							"/>
							<rect x="513.998" y="547.2" fill="#787563" width="11.754" height="16.415"/>
							<rect x="513.998" y="577.687" fill="#787563" width="11.754" height="16.415"/>
							<rect x="550.864" y="547.2" fill="#787563" width="11.753" height="16.415"/>
							<rect x="550.864" y="577.687" fill="#787563" width="11.753" height="16.415"/>
							<rect x="588.085" y="547.2" fill="#787563" width="11.753" height="16.415"/>
							<rect x="588.085" y="577.687" fill="#787563" width="11.753" height="16.415"/>
						</g>
						<path fill="#95CF50" d="M473.633,478.91c0,0-21.596-2.168-26.831-14.525c-9.958-23.508-30.975-28.402-30.975-28.402
							s74.385-21.031,71.258,42.491c0,0-11.343-17.342-22.976-23.411C464.108,455.063,475.379,469.079,473.633,478.91z"/>
						<path fill="#95CF50" d="M501.33,476.742c0,0,16.941-1.703,21.047-11.395c7.812-18.441,24.299-22.279,24.299-22.279
							s-58.349-16.5-55.896,33.334c0,0,8.898-13.605,18.024-18.368C508.804,458.034,499.962,469.031,501.33,476.742z"/>
					</g>
					<g>
						<g>
							<g>
								<rect x="784.479" y="561.41" fill="#B79030" width="16.27" height="52.72"/>
							</g>
							<path fill="#95CF50" d="M799.612,450.298l33.272,112.627c1.356,4.585-2.142,9.168-6.995,9.168h-66.553
								c-4.854,0-8.353-4.583-6.997-9.168l33.273-112.627C787.648,443.408,797.577,443.408,799.612,450.298z"/>
						</g>
						<path fill="#79AA33" d="M786.312,468.022c0.289,3.347,3.166,5.981,6.712,5.981c3.548,0,6.428-2.635,6.716-5.981H786.312z"/>
						<path fill="#79AA33" d="M774.793,510.427c0.292,3.343,3.169,5.981,6.716,5.981s6.424-2.639,6.716-5.981H774.793z"/>
						<path fill="#79AA33" d="M788.667,490.395c0.29,3.344,3.166,5.981,6.713,5.981s6.424-2.638,6.716-5.981H788.667z"/>
						<path fill="#79AA33" d="M799.658,526.294c0.292,3.347,3.169,5.98,6.716,5.98c3.548,0,6.424-2.634,6.717-5.98H799.658z"/>
						<path fill="#79AA33" d="M772.961,540.858c0.293,3.35,3.17,5.984,6.716,5.984c3.547,0,6.424-2.635,6.716-5.984H772.961z"/>
						<path fill="#79AA33" d="M788.667,559.33c0.29,3.346,3.166,5.981,6.713,5.981s6.424-2.636,6.716-5.981H788.667z"/>
					</g>
					<g>
						<g>
							<g>
								<rect x="879.748" y="565.039" fill="#B79030" width="13.864" height="44.927"/>
							</g>
							<path fill="#95CF50" d="M892.644,470.345l28.357,95.984c1.155,3.907-1.824,7.814-5.963,7.814h-56.715
								c-4.139,0-7.118-3.907-5.963-7.814l28.356-95.984C882.451,464.476,890.909,464.476,892.644,470.345z"/>
						</g>
						<path fill="#79AA33" d="M880.352,560.368c0.293,3.347,3.169,5.985,6.716,5.985c3.548,0,6.425-2.639,6.716-5.985H880.352z"/>
						<path fill="#79AA33" d="M895.664,539.168c0.29,3.347,3.169,5.984,6.716,5.984s6.424-2.638,6.714-5.984H895.664z"/>
						<path fill="#79AA33" d="M864.648,546.321c0.29,3.347,3.167,5.985,6.716,5.985c3.545,0,6.425-2.639,6.714-5.985H864.648z"/>
						<path fill="#79AA33" d="M872.761,525.902c0.293,3.344,3.17,5.984,6.716,5.984c3.547,0,6.424-2.641,6.716-5.984H872.761z"/>
						<path fill="#79AA33" d="M885.325,508.993c0.292,3.348,3.168,5.981,6.716,5.981c3.547,0,6.423-2.634,6.716-5.981H885.325z"/>
						<path fill="#79AA33" d="M879.696,487.532c0.292,3.347,3.169,5.982,6.716,5.982s6.424-2.636,6.716-5.982H879.696z"/>
					</g>
					<g>
						<g>
							<g>
								<rect x="353.109" y="565.039" fill="#B79030" width="13.865" height="44.927"/>
							</g>
							<path fill="#95CF50" d="M366.006,470.345l28.357,95.984c1.155,3.907-1.827,7.814-5.965,7.814h-56.715
								c-4.139,0-7.119-3.907-5.964-7.814l28.357-95.984C355.812,464.476,364.271,464.476,366.006,470.345z"/>
						</g>
						<path fill="#79AA33" d="M353.714,560.368c0.291,3.347,3.167,5.985,6.715,5.985c3.547,0,6.425-2.639,6.715-5.985H353.714z"/>
						<path fill="#79AA33" d="M369.024,539.168c0.291,3.347,3.169,5.984,6.716,5.984s6.423-2.638,6.714-5.984H369.024z"/>
						<path fill="#79AA33" d="M338.01,546.321c0.291,3.347,3.168,5.985,6.715,5.985s6.425-2.639,6.716-5.985H338.01z"/>
						<path fill="#79AA33" d="M346.123,525.902c0.291,3.344,3.169,5.984,6.716,5.984c3.547,0,6.423-2.641,6.714-5.984H346.123z"/>
						<path fill="#79AA33" d="M358.687,508.993c0.291,3.348,3.167,5.981,6.715,5.981c3.547,0,6.423-2.634,6.715-5.981H358.687z"/>
						<path fill="#79AA33" d="M353.059,487.532c0.291,3.347,3.169,5.982,6.716,5.982c3.547,0,6.424-2.636,6.715-5.982H353.059z"/>
					</g>
					<g>
						<g>
							<polygon fill="#BCB5A2" points="1073.372,624.058 994.668,624.058 994.668,485.67 1052.395,485.67 							"/>
							<polygon fill="#BCB5A2" points="1052.395,485.67 1005.961,514.775 1098.149,514.775 							"/>
							<polygon fill="#ECE9E0" points="1005.961,514.775 987.531,514.806 987.531,624.062 1098.2,624.062 1098.2,514.806 
								1098.149,514.775 							"/>
							<polygon fill="#ECE9E0" points="1040.471,514.806 994.665,485.67 948.184,514.806 948.184,624.062 1040.471,624.062 							
								"/>
						</g>
						<g>
							<rect x="1053.068" y="530.937" fill="#787563" width="12.713" height="15.686"/>
							<rect x="1075.297" y="530.937" fill="#787563" width="12.714" height="15.686"/>
							<rect x="1053.068" y="554.293" fill="#787563" width="12.713" height="15.688"/>
							<rect x="1075.297" y="554.293" fill="#787563" width="12.714" height="15.688"/>
							<rect x="1053.068" y="576.117" fill="#787563" width="12.713" height="15.689"/>
							<rect x="1075.297" y="576.117" fill="#787563" width="12.714" height="15.689"/>
						</g>
						<g>
							<rect x="970.232" y="530.937" fill="#787563" width="12.71" height="15.686"/>
							<rect x="992.462" y="530.937" fill="#787563" width="12.711" height="15.686"/>
							<rect x="970.232" y="554.293" fill="#787563" width="12.71" height="15.688"/>
							<rect x="992.462" y="554.293" fill="#787563" width="12.711" height="15.688"/>
							<rect x="970.232" y="576.117" fill="#787563" width="12.71" height="15.689"/>
							<rect x="992.462" y="576.117" fill="#787563" width="12.711" height="15.689"/>
						</g>
					</g>
				</g>
				<g>
					<polygon fill="#7EBE00" points="1393.096,605.375 1393.063,605.35 1393.063,605.332 1393.035,605.332 1381.837,597.852 
						1372.456,604.114 1363.077,597.852 1353.698,604.114 1344.322,597.852 1334.942,604.114 1325.563,597.852 1316.185,604.114 
						1306.804,597.852 1297.425,604.114 1288.046,597.852 1278.666,604.114 1269.287,597.852 1259.908,604.114 1250.531,597.852 
						1241.152,604.114 1231.772,597.852 1222.393,604.114 1213.014,597.852 1203.634,604.114 1194.255,597.852 1184.876,604.114 
						1175.5,597.852 1166.12,604.114 1156.741,597.852 1147.361,604.114 1137.982,597.852 1128.603,604.114 1119.225,597.852 
						1109.844,604.114 1100.464,597.852 1091.088,604.114 1081.709,597.852 1072.33,604.114 1062.949,597.852 1053.571,604.114 
						1044.191,597.852 1034.813,604.114 1025.433,597.852 1016.054,604.114 1006.677,597.852 997.297,604.114 987.919,597.852 
						978.538,604.114 969.16,597.852 959.78,604.114 950.401,597.852 941.021,604.114 931.646,597.852 922.266,604.114 
						912.887,597.852 903.508,604.114 894.127,597.852 884.749,604.114 875.369,597.852 865.989,604.114 856.61,597.852 
						847.231,604.114 837.854,597.852 828.476,604.114 819.097,597.852 809.717,604.114 800.337,597.852 790.959,604.114 
						781.578,597.852 772.199,604.114 762.823,597.852 753.443,604.114 744.064,597.852 734.686,604.114 725.306,597.852 
						715.926,604.114 706.548,597.852 696.596,604.499 686.641,597.852 677.264,604.114 667.884,597.852 658.505,604.114 
						649.127,597.852 639.747,604.114 630.368,597.852 620.989,604.114 611.609,597.852 602.231,604.114 592.853,597.852 
						583.473,604.114 574.093,597.852 564.714,604.114 555.336,597.852 545.957,604.114 536.578,597.852 527.198,604.114 
						517.82,597.852 508.441,604.114 499.062,597.852 489.682,604.114 480.305,597.852 470.925,604.114 461.546,597.852 
						452.167,604.114 442.789,597.852 433.409,604.114 424.03,597.852 414.65,604.114 405.271,597.852 395.894,604.114 
						386.514,597.852 377.134,604.114 367.755,597.852 358.376,604.114 348.998,597.852 339.619,604.114 330.24,597.852 
						320.86,604.114 311.482,597.852 302.103,604.114 292.723,597.852 283.344,604.114 273.966,597.852 264.587,604.114 
						255.208,597.852 245.829,604.114 236.449,597.852 227.071,604.114 217.692,597.852 208.313,604.114 198.933,597.852 
						189.554,604.114 180.176,597.852 170.797,604.114 161.417,597.852 152.039,604.114 142.66,597.852 133.281,604.114 
						123.901,597.852 114.522,604.114 105.145,597.852 95.764,604.114 86.385,597.852 77.006,604.114 67.626,597.852 
						58.249,604.114 48.87,597.852 39.49,604.114 30.111,597.852 20.733,604.114 11.354,597.852 0.155,605.332 0.094,605.332 
						0.094,654.705 1393.063,654.705 1393.063,605.375 					"/>
					<rect x="0.094" y="616.474" fill="#A7DB28" width="1392.968" height="38.231"/>
					<rect x="0.094" y="638.701" fill="#C3E84D" width="1392.968" height="16.004"/>
					<rect x="0.094" y="651.736" fill="#C3E84D" width="1392.958" height="41.893"/>
				</g>
			</g>
		</g>
	</g>
</g>
<g>
	<g>
		<path fill="#FFFFFF" d="M650.948,168.883c-0.279,0-0.548,0.078-0.835,0.085c-2.695-17.77-17.979-31.438-36.608-31.438
			c-17.068,0-31.304,11.511-35.658,27.102c-3.138-1.755-6.702-2.836-10.56-2.836c-11.966,0-21.67,9.642-21.67,21.537
			c0,1.313,0.162,2.582,0.387,3.831c-0.944-0.124-1.878-0.286-2.854-0.286c-11.968,0-21.67,9.643-21.67,21.534
			c0,11.896,9.702,21.54,21.67,21.54c4.114,0,7.919-1.199,11.197-3.178c26.822,18.043,86.093,12.263,89.747,0.124
			c2.209,0.527,4.482,0.874,6.855,0.874c16.355,0,29.624-13.185,29.624-29.444C680.572,182.068,667.304,168.883,650.948,168.883z"/>
	</g>
	<g>
		<path fill="#C9EBFC" d="M1144.973,106.877c-0.392,0-0.764,0.108-1.159,0.118c-3.742-24.682-24.972-43.667-50.853-43.667
			c-23.703,0-43.483,15.99-49.529,37.644c-4.359-2.436-9.31-3.938-14.668-3.938c-16.617,0-30.098,13.394-30.098,29.913
			c0,1.825,0.226,3.588,0.536,5.324c-1.309-0.172-2.607-0.399-3.966-0.399c-16.618,0-30.1,13.397-30.1,29.914
			c0,16.521,13.481,29.919,30.1,29.919c5.713,0,10.999-1.67,15.549-4.414c37.26,25.062,119.586,17.032,124.662,0.172
			c3.07,0.73,6.225,1.211,9.525,1.211c22.715,0,41.149-18.312,41.149-40.897C1186.122,125.192,1167.688,106.877,1144.973,106.877z"
			/>
	</g>
	<g>
		<path fill="#FFFFFF" d="M165.342,306.893c-0.186,0-0.365,0.05-0.553,0.056c-1.791-11.801-11.943-20.878-24.315-20.878
			c-11.338,0-20.795,7.643-23.686,17.998c-2.083-1.166-4.453-1.883-7.016-1.883c-7.944,0-14.389,6.404-14.389,14.306
			c0,0.868,0.105,1.714,0.257,2.544c-0.627-0.084-1.248-0.19-1.896-0.19c-7.95,0-14.394,6.404-14.394,14.305
			c0,7.901,6.444,14.306,14.394,14.306c2.733,0,5.259-0.801,7.437-2.112c17.814,11.983,57.183,8.147,59.608,0.084
			c1.467,0.348,2.977,0.577,4.554,0.577c10.864,0,19.676-8.753,19.676-19.556C185.018,315.65,176.207,306.893,165.342,306.893z"/>
	</g>
	<g>
		<path fill="#C9EBFC" d="M435.133,72.975c-0.315,0-0.618,0.088-0.938,0.098c-3.042-20.036-20.275-35.448-41.279-35.448
			c-19.246,0-35.302,12.979-40.208,30.559c-3.537-1.978-7.559-3.198-11.908-3.198c-13.49,0-24.435,10.874-24.435,24.283
			c0,1.48,0.183,2.912,0.44,4.321c-1.065-0.139-2.118-0.324-3.22-0.324c-13.496,0-24.435,10.875-24.435,24.284
			c0,13.412,10.938,24.286,24.435,24.286c4.64,0,8.93-1.355,12.624-3.582c30.244,20.342,97.076,13.827,101.194,0.139
			c2.492,0.592,5.053,0.983,7.73,0.983c18.441,0,33.403-14.865,33.403-33.2C468.536,87.842,453.575,72.975,435.133,72.975z"/>
	</g>
</g>
<g id="Small_Clouds">
	<g opacity="0.35">
		<path fill="#E8E3CC" d="M947.853,314.007h10.802c2.93,0.405,5.188,2.881,5.188,5.898c0,3.308-2.691,5.982-6.019,5.982h53.555
			c-3.327,0-6.018-2.675-6.018-5.982c0-3.018,2.257-5.493,5.186-5.898h18.296c3.324,0,6.018-2.68,6.018-5.983
			c0-3.305-2.693-5.981-6.018-5.981h-80.989c-3.324,0-6.021,2.677-6.021,5.981C941.831,311.327,944.528,314.007,947.853,314.007z"/>
		<path fill="#E8E3CC" d="M1031.194,349.713h-30.137c-2.393-0.79-4.126-3.006-4.126-5.65c0-3.302,2.693-5.983,6.021-5.983h-39.627
			c3.327,0,6.021,2.682,6.021,5.983c0,2.645-1.733,4.86-4.126,5.65h-37.7c-3.324,0-6.021,2.68-6.021,5.982
			c0,3.306,2.697,5.984,6.021,5.984h103.673c3.324,0,6.019-2.679,6.019-5.984C1037.213,352.393,1034.519,349.713,1031.194,349.713z"
			/>
		<path fill="#E8E3CC" d="M1071.768,325.912h-162.18c-3.324,0-6.021,2.679-6.021,5.983c0,3.304,2.697,5.983,6.021,5.983h162.18
			c3.321,0,6.019-2.68,6.019-5.983C1077.786,328.591,1075.089,325.912,1071.768,325.912z"/>
	</g>
	<g opacity="0.35">
		<path fill="#E8E3CC" d="M843.796,93.778h6.287c1.705,0.236,3.019,1.676,3.019,3.433c0,1.927-1.564,3.483-3.503,3.483h31.176
			c-1.938,0-3.505-1.557-3.505-3.483c0-1.756,1.314-3.196,3.021-3.433h10.647c1.935,0,3.503-1.56,3.503-3.483
			s-1.568-3.483-3.503-3.483h-47.142c-1.935,0-3.505,1.56-3.505,3.483S841.861,93.778,843.796,93.778z"/>
		<path fill="#E8E3CC" d="M892.308,114.563h-17.543c-1.393-0.46-2.4-1.751-2.4-3.289c0-1.922,1.565-3.483,3.504-3.483h-23.064
			c1.935,0,3.504,1.561,3.504,3.483c0,1.538-1.009,2.829-2.401,3.289h-21.945c-1.937,0-3.504,1.56-3.504,3.483
			c0,1.923,1.567,3.482,3.504,3.482h60.347c1.935,0,3.505-1.56,3.505-3.482C895.813,116.122,894.242,114.563,892.308,114.563z"/>
		<path fill="#E8E3CC" d="M915.924,100.708h-94.403c-1.935,0-3.504,1.56-3.504,3.483c0,1.923,1.569,3.483,3.504,3.483h94.403
			c1.936,0,3.504-1.56,3.504-3.483C919.428,102.268,917.859,100.708,915.924,100.708z"/>
	</g>
	<g opacity="0.35">
		<path fill="#E8E3CC" d="M45.177,104.121H52.4c1.96,0.271,3.469,1.926,3.469,3.945c0,2.211-1.799,4-4.025,4h35.81
			c-2.224,0-4.023-1.788-4.023-4c0-2.019,1.51-3.674,3.468-3.945H99.33c2.224,0,4.026-1.792,4.026-4.001
			c0-2.209-1.802-3.999-4.026-3.999H45.177c-2.223,0-4.025,1.79-4.025,3.999C41.151,102.33,42.954,104.121,45.177,104.121z"/>
		<path fill="#E8E3CC" d="M100.905,127.996H80.751c-1.598-0.529-2.756-2.01-2.756-3.778c0-2.208,1.799-4,4.024-4H55.525
			c2.224,0,4.024,1.792,4.024,4c0,1.769-1.158,3.25-2.758,3.778h-25.21c-2.223,0-4.024,1.792-4.024,4
			c0,2.209,1.801,4.001,4.024,4.001h69.323c2.222,0,4.023-1.792,4.023-4.001C104.928,129.788,103.127,127.996,100.905,127.996z"/>
		<path fill="#E8E3CC" d="M128.034,112.082H19.591c-2.224,0-4.024,1.792-4.024,4.001c0,2.209,1.801,4,4.024,4h108.442
			c2.223,0,4.024-1.792,4.024-4C132.058,113.874,130.256,112.082,128.034,112.082z"/>
	</g>
	<g opacity="0.35">
		<path fill="#E8E3CC" d="M228.361,258.831h7.127c1.932,0.268,3.421,1.901,3.421,3.892c0,2.182-1.774,3.946-3.97,3.946h35.329
			c-2.194,0-3.97-1.765-3.97-3.946c0-1.991,1.49-3.624,3.422-3.892h12.07c2.192,0,3.97-1.767,3.97-3.946
			c0-2.181-1.778-3.948-3.97-3.948h-53.43c-2.193,0-3.971,1.768-3.971,3.948C224.39,257.063,226.168,258.831,228.361,258.831z"/>
		<path fill="#E8E3CC" d="M283.342,282.385H263.46c-1.577-0.52-2.72-1.982-2.72-3.726c0-2.179,1.775-3.948,3.971-3.948H238.57
			c2.196,0,3.971,1.769,3.971,3.948c0,1.744-1.143,3.206-2.72,3.726h-24.874c-2.192,0-3.97,1.768-3.97,3.948
			c0,2.18,1.778,3.947,3.97,3.947h68.394c2.193,0,3.972-1.767,3.972-3.947C287.314,284.153,285.535,282.385,283.342,282.385z"/>
		<path fill="#E8E3CC" d="M310.108,266.686H203.119c-2.194,0-3.973,1.767-3.973,3.946c0,2.181,1.778,3.948,3.973,3.948h106.989
			c2.192,0,3.971-1.768,3.971-3.948C314.079,268.453,312.301,266.686,310.108,266.686z"/>
	</g>
</g>
</svg>
